<svg xmlns="http://www.w3.org/2000/svg" xmlns:xlink="http://www.w3.org/1999/xlink" contentStyleType="text/css" data-diagram-type="ACTIVITY" height="808px" preserveAspectRatio="none" style="width:444px;height:808px;" version="1.1" viewBox="0 0 444 808" width="444px" zoomAndPan="magnify"><defs><linearGradient id="g15g7v0e04bqpy0" x1="50%" x2="50%" y1="0%" y2="100%"><stop offset="0%" stop-color="#525252"/><stop offset="100%" stop-color="#262626"/></linearGradient><linearGradient id="g15g7v0e04bqpy1" x1="50%" x2="50%" y1="0%" y2="100%"><stop offset="0%" stop-color="#F4F4F4"/><stop offset="100%" stop-color="#F4F4F4"/></linearGradient></defs><g><ellipse cx="221.9854" cy="20" fill="url(#g15g7v0e04bqpy0)" rx="10" ry="10" style="stroke:#222222;stroke-width:1;"/><rect fill="url(#g15g7v0e04bqpy1)" height="88.2656" style="stroke:#C6C6C6;stroke-width:0.5;" width="222.373" x="110.7988" y="50"/><line style="stroke:#C6C6C6;stroke-width:1;" x1="110.7988" x2="200.2725" y1="87.0664" y2="87.0664"/><text fill="#262626" font-family="sans-serif" font-size="12" lengthAdjust="spacing" textLength="3.7969" x="210.2725" y="91.1016">&#160;</text><text fill="#262626" font-family="sans-serif" font-size="12" font-weight="bold" lengthAdjust="spacing" textLength="15.832" x="214.0693" y="91.1016">10</text><text fill="#262626" font-family="sans-serif" font-size="12" lengthAdjust="spacing" textLength="3.7969" x="229.9014" y="91.1016">&#160;</text><line style="stroke:#C6C6C6;stroke-width:1;" x1="243.6982" x2="333.1719" y1="87.0664" y2="87.0664"/><text fill="#262626" font-family="sans-serif" font-size="12" lengthAdjust="spacing" textLength="182.373" x="130.7988" y="115.7344">check warehouse for new stock</text><rect fill="url(#g15g7v0e04bqpy1)" height="54.1328" style="stroke:#C6C6C6;stroke-width:0.5;" width="151.3691" x="146.3008" y="158.2656"/><text fill="#262626" font-family="sans-serif" font-size="12" font-weight="bold" lengthAdjust="spacing" textLength="111.3691" x="166.3008" y="189.8672">update item stock</text><rect fill="url(#g15g7v0e04bqpy1)" height="88.2656" style="stroke:#C6C6C6;stroke-width:0.5;" width="157.1523" x="143.4092" y="232.3984"/><line style="stroke:#C6C6C6;stroke-width:1;" x1="143.4092" x2="188.124" y1="269.4648" y2="269.4648"/><text fill="#262626" font-family="sans-serif" font-size="12" lengthAdjust="spacing" textLength="3.7969" x="198.124" y="273.5">&#160;</text><path d="M206.9209,265.0313 C204.7209,265.0313 202.9209,266.8313 202.9209,269.0313 C202.9209,271.2313 204.7209,273.0313 206.9209,273.0313 C209.1209,273.0313 210.9209,271.2313 210.9209,269.0313 C210.9209,266.8313 209.1209,265.0313 206.9209,265.0313 M206.9209,266.0313 C208.5809,266.0313 209.9209,267.3713 209.9209,269.0313 C209.9209,270.6913 208.5809,272.0313 206.9209,272.0313 C205.2609,272.0313 203.9209,270.6913 203.9209,269.0313 C203.9209,267.3713 205.2609,266.0313 206.9209,266.0313 M206.4209,267.0313 L206.4209,269.2513 L206.5809,269.3813 L207.0809,269.8813 L207.4209,270.2613 L208.1409,269.5413 L207.7609,269.2013 L207.4209,268.8613 L207.4209,267.0513 L206.4209,267.0513" fill="#262626"/><text fill="#262626" font-family="sans-serif" font-size="12" font-weight="bold" lengthAdjust="spacing" textLength="26.1738" x="215.876" y="273.5">wait</text><text fill="#262626" font-family="sans-serif" font-size="12" lengthAdjust="spacing" textLength="3.7969" x="242.0498" y="273.5">&#160;</text><line style="stroke:#C6C6C6;stroke-width:1;" x1="255.8467" x2="300.5615" y1="269.4648" y2="269.4648"/><text fill="#262626" font-family="sans-serif" font-size="12" lengthAdjust="spacing" textLength="117.1523" x="163.4092" y="298.1328">Wait if stock is &gt; 40</text><polygon fill="url(#g15g7v0e04bqpy1)" points="174.002,340.6641,269.9688,340.6641,281.9688,357.7305,269.9688,374.7969,174.002,374.7969,162.002,357.7305,174.002,340.6641" style="stroke:#F4F4F4;stroke-width:0.5;"/><text fill="#262626" font-family="sans-serif" font-size="12" lengthAdjust="spacing" textLength="68.373" x="187.7988" y="362.2656">check stock</text><rect fill="url(#g15g7v0e04bqpy1)" height="54.1328" style="stroke:#C6C6C6;stroke-width:0.5;" width="88.4023" x="42.1309" y="433.0625"/><path d="M67.1309,456.1953 C64.9309,456.1953 63.1309,457.9953 63.1309,460.1953 C63.1309,462.3953 64.9309,464.1953 67.1309,464.1953 C69.3309,464.1953 71.1309,462.3953 71.1309,460.1953 C71.1309,457.9953 69.3309,456.1953 67.1309,456.1953 M67.1309,457.1953 C68.7909,457.1953 70.1309,458.5353 70.1309,460.1953 C70.1309,461.8553 68.7909,463.1953 67.1309,463.1953 C65.4709,463.1953 64.1309,461.8553 64.1309,460.1953 C64.1309,458.5353 65.4709,457.1953 67.1309,457.1953 M66.6309,458.1953 L66.6309,460.4153 L66.7909,460.5453 L67.2909,461.0453 L67.6309,461.4253 L68.3509,460.7053 L67.9709,460.3653 L67.6309,460.0253 L67.6309,458.2153 L66.6309,458.2153" fill="#262626"/><text fill="#262626" font-family="sans-serif" font-size="12" font-weight="bold" lengthAdjust="spacing" textLength="34.4473" x="76.0859" y="464.6641">PT2M</text><rect fill="#FFFFFF" height="276.3984" style="stroke:#F4F4F4;stroke-width:1.5;" width="151.6641" x="11" y="521.3281"/><path d="M153.6641,521.3281 L153.6641,548.4609 L143.6641,558.4609 L11,558.4609" fill="none" style="stroke:#F4F4F4;stroke-width:1.5;"/><text fill="#262626" font-family="sans-serif" font-size="12" font-weight="bold" lengthAdjust="spacing" textLength="112.6641" x="23" y="543.9297">Restore Item Price</text><ellipse cx="86.332" cy="585.4609" fill="url(#g15g7v0e04bqpy0)" rx="10" ry="10" style="stroke:#222222;stroke-width:1;"/><rect fill="url(#g15g7v0e04bqpy1)" height="54.1328" style="stroke:#C6C6C6;stroke-width:0.5;" width="112.8672" x="29.8984" y="615.4609"/><text fill="#262626" font-family="sans-serif" font-size="12" font-weight="bold" lengthAdjust="spacing" textLength="72.8672" x="49.8984" y="647.0625">updatePrice</text><rect fill="url(#g15g7v0e04bqpy1)" height="54.1328" style="stroke:#C6C6C6;stroke-width:0.5;" width="95.4004" x="38.6318" y="689.5938"/><text fill="#262626" font-family="sans-serif" font-size="12" font-weight="bold" lengthAdjust="spacing" textLength="55.4004" x="58.6318" y="721.1953">sendMail</text><ellipse cx="86.332" cy="774.7266" fill="none" rx="11" ry="11" style="stroke:#222222;stroke-width:1;"/><ellipse cx="86.332" cy="774.7266" fill="#222222" rx="6" ry="6" style="stroke:#222222;stroke-width:1;"/><rect fill="url(#g15g7v0e04bqpy1)" height="54.1328" style="stroke:#C6C6C6;stroke-width:0.5;" width="137.6406" x="296.3301" y="418.9297"/><text fill="#262626" font-family="sans-serif" font-size="12" font-weight="bold" lengthAdjust="spacing" textLength="97.6406" x="316.3301" y="450.5313">buy-new-items</text><ellipse cx="365.1504" cy="518.1953" fill="none" rx="11" ry="11" style="stroke:#222222;stroke-width:1;"/><ellipse cx="365.1504" cy="518.1953" fill="#222222" rx="6" ry="6" style="stroke:#222222;stroke-width:1;"/><line style="stroke:#C6C6C6;stroke-width:1;" x1="221.9854" x2="221.9854" y1="30" y2="50"/><polygon fill="#C6C6C6" points="217.9854,40,221.9854,50,225.9854,40,221.9854,44" style="stroke:#C6C6C6;stroke-width:1;"/><line style="stroke:#C6C6C6;stroke-width:1;" x1="221.9854" x2="221.9854" y1="138.2656" y2="158.2656"/><polygon fill="#C6C6C6" points="217.9854,148.2656,221.9854,158.2656,225.9854,148.2656,221.9854,152.2656" style="stroke:#C6C6C6;stroke-width:1;"/><line style="stroke:#C6C6C6;stroke-width:1;" x1="221.9854" x2="221.9854" y1="212.3984" y2="232.3984"/><polygon fill="#C6C6C6" points="217.9854,222.3984,221.9854,232.3984,225.9854,222.3984,221.9854,226.3984" style="stroke:#C6C6C6;stroke-width:1;"/><line style="stroke:#C6C6C6;stroke-width:1;" x1="86.332" x2="86.332" y1="595.4609" y2="615.4609"/><polygon fill="#C6C6C6" points="82.332,605.4609,86.332,615.4609,90.332,605.4609,86.332,609.4609" style="stroke:#C6C6C6;stroke-width:1;"/><line style="stroke:#C6C6C6;stroke-width:1;" x1="86.332" x2="86.332" y1="669.5938" y2="689.5938"/><polygon fill="#C6C6C6" points="82.332,679.5938,86.332,689.5938,90.332,679.5938,86.332,683.5938" style="stroke:#C6C6C6;stroke-width:1;"/><line style="stroke:#C6C6C6;stroke-width:1;" x1="86.332" x2="86.332" y1="743.7266" y2="763.7266"/><polygon fill="#C6C6C6" points="82.332,753.7266,86.332,763.7266,90.332,753.7266,86.332,757.7266" style="stroke:#C6C6C6;stroke-width:1;"/><line style="stroke:#C6C6C6;stroke-width:1;" x1="86.332" x2="86.332" y1="487.1953" y2="575.4609"/><polygon fill="#C6C6C6" points="82.332,565.4609,86.332,575.4609,90.332,565.4609,86.332,569.4609" style="stroke:#C6C6C6;stroke-width:1;"/><line style="stroke:#C6C6C6;stroke-width:1;" x1="365.1504" x2="365.1504" y1="473.0625" y2="507.1953"/><polygon fill="#C6C6C6" points="361.1504,497.1953,365.1504,507.1953,369.1504,497.1953,365.1504,501.1953" style="stroke:#C6C6C6;stroke-width:1;"/><line style="stroke:#C6C6C6;stroke-width:1;" x1="162.002" x2="86.332" y1="357.7305" y2="357.7305"/><line style="stroke:#C6C6C6;stroke-width:1;" x1="86.332" x2="86.332" y1="357.7305" y2="433.0625"/><polygon fill="#C6C6C6" points="82.332,423.0625,86.332,433.0625,90.332,423.0625,86.332,427.0625" style="stroke:#C6C6C6;stroke-width:1;"/><text fill="#262626" font-family="sans-serif" font-size="12" lengthAdjust="spacing" textLength="162.4043" x="100.1289" y="397.4297">WarehouseStockCount &gt; 40</text><line style="stroke:#C6C6C6;stroke-width:1;" x1="281.9688" x2="365.1504" y1="357.7305" y2="357.7305"/><line style="stroke:#C6C6C6;stroke-width:1;" x1="365.1504" x2="365.1504" y1="357.7305" y2="418.9297"/><polygon fill="#C6C6C6" points="361.1504,408.9297,365.1504,418.9297,369.1504,408.9297,365.1504,412.9297" style="stroke:#C6C6C6;stroke-width:1;"/><line style="stroke:#C6C6C6;stroke-width:1;" x1="221.9854" x2="221.9854" y1="320.6641" y2="340.6641"/><polygon fill="#C6C6C6" points="217.9854,330.6641,221.9854,340.6641,225.9854,330.6641,221.9854,334.6641" style="stroke:#C6C6C6;stroke-width:1;"/><!--SRC=[JL1DQm8n4BtxAruz51i8sD9J5I-UUX2aBVGSu-W6DLcIMHOf_dSdkt6xSqhcVSoRUUAABWHhuYvuVOpcEabi8a-03wsXrEjSAMWjVrkHFQ4raQhG9C8XH7XgaJZOqo8Bb6hglM62OxhqVQKMWzNosPwbjH8Fnm_NNtd37NesNC8Ax_EiIQrZMs5MvlRuYm2InCZucKXBbE-ChKFZkLCNLXTecBdzUTlqONBLig9Z5pocNoJMaV2PCs-ZipJ5Nw59YdACHmqxTin_mu8bylkDSUSn8FPr-Tn6yKSXTyrLooLrFblAqYov0m00]--></g></svg>