<svg xmlns="http://www.w3.org/2000/svg" xmlns:xlink="http://www.w3.org/1999/xlink" contentStyleType="text/css" data-diagram-type="ACTIVITY" height="888px" preserveAspectRatio="none" style="width:465px;height:888px;" version="1.1" viewBox="0 0 465 888" width="465px" zoomAndPan="magnify"><defs><linearGradient id="g37bg5hgu73420" x1="50%" x2="50%" y1="0%" y2="100%"><stop offset="0%" stop-color="#525252"/><stop offset="100%" stop-color="#262626"/></linearGradient><linearGradient id="g37bg5hgu73421" x1="50%" x2="50%" y1="0%" y2="100%"><stop offset="0%" stop-color="#F4F4F4"/><stop offset="100%" stop-color="#F4F4F4"/></linearGradient></defs><g><ellipse cx="225.5781" cy="20" fill="url(#g37bg5hgu73420)" rx="10" ry="10" style="stroke:#222222;stroke-width:1;"/><rect fill="url(#g37bg5hgu73421)" height="88.2656" style="stroke:#C6C6C6;stroke-width:0.5;" width="222.373" x="114.3916" y="50"/><line style="stroke:#C6C6C6;stroke-width:1;" x1="114.3916" x2="207.6621" y1="87.0664" y2="87.0664"/><text fill="#262626" font-family="sans-serif" font-size="12" font-weight="bold" lengthAdjust="spacing" textLength="15.832" x="217.6621" y="91.1016">10</text><line style="stroke:#C6C6C6;stroke-width:1;" x1="243.4941" x2="336.7646" y1="87.0664" y2="87.0664"/><text fill="#262626" font-family="sans-serif" font-size="12" lengthAdjust="spacing" textLength="182.373" x="134.3916" y="115.7344">check warehouse for new stock</text><rect fill="url(#g37bg5hgu73421)" height="54.1328" style="stroke:#C6C6C6;stroke-width:0.5;" width="151.3691" x="149.8936" y="158.2656"/><text fill="#262626" font-family="sans-serif" font-size="12" font-weight="bold" lengthAdjust="spacing" textLength="111.3691" x="169.8936" y="189.8672">update item stock</text><rect fill="url(#g37bg5hgu73421)" height="88.2656" style="stroke:#C6C6C6;stroke-width:0.5;" width="157.1523" x="147.002" y="232.3984"/><line style="stroke:#C6C6C6;stroke-width:1;" x1="147.002" x2="195.5137" y1="269.4648" y2="269.4648"/><path d="M210.5137,265.0313 C208.3137,265.0313 206.5137,266.8313 206.5137,269.0313 C206.5137,271.2313 208.3137,273.0313 210.5137,273.0313 C212.7137,273.0313 214.5137,271.2313 214.5137,269.0313 C214.5137,266.8313 212.7137,265.0313 210.5137,265.0313 M210.5137,266.0313 C212.1737,266.0313 213.5137,267.3713 213.5137,269.0313 C213.5137,270.6913 212.1737,272.0313 210.5137,272.0313 C208.8537,272.0313 207.5137,270.6913 207.5137,269.0313 C207.5137,267.3713 208.8537,266.0313 210.5137,266.0313 M210.0137,267.0313 L210.0137,269.2513 L210.1737,269.3813 L210.6737,269.8813 L211.0137,270.2613 L211.7337,269.5413 L211.3537,269.2013 L211.0137,268.8613 L211.0137,267.0513 L210.0137,267.0513" fill="#262626"/><text fill="#262626" font-family="sans-serif" font-size="12" font-weight="bold" lengthAdjust="spacing" textLength="26.1738" x="219.4688" y="273.5">wait</text><line style="stroke:#C6C6C6;stroke-width:1;" x1="255.6426" x2="304.1543" y1="269.4648" y2="269.4648"/><text fill="#262626" font-family="sans-serif" font-size="12" lengthAdjust="spacing" textLength="117.1523" x="167.002" y="298.1328">Wait if stock is &gt; 40</text><polygon fill="url(#g37bg5hgu73421)" points="177.5947,340.6641,273.5615,340.6641,285.5615,357.7305,273.5615,374.7969,177.5947,374.7969,165.5947,357.7305,177.5947,340.6641" style="stroke:#F4F4F4;stroke-width:0.5;"/><text fill="#262626" font-family="sans-serif" font-size="12" lengthAdjust="spacing" textLength="68.373" x="191.3916" y="362.2656">check stock</text><rect fill="url(#g37bg5hgu73421)" height="68.2656" style="stroke:#C6C6C6;stroke-width:0.5;" width="202.4043" x="45.5557" y="394.7969"/><text fill="#262626" font-family="sans-serif" font-size="12" font-weight="bold" lengthAdjust="spacing" text-decoration="line-through" textLength="91.7051" x="65.5557" y="426.3984">discount-price</text><text fill="#262626" font-family="sans-serif" font-size="12" lengthAdjust="spacing" textLength="162.4043" x="65.5557" y="440.5313">WarehouseStockCount &gt; 40</text><rect fill="#262626" height="6" rx="2.5" ry="2.5" style="stroke:#262626;stroke-width:1;" width="285.5156" x="11" y="483.0625"/><rect fill="url(#g37bg5hgu73421)" height="54.1328" style="stroke:#C6C6C6;stroke-width:0.5;" width="88.4023" x="116.5566" y="509.0625"/><path d="M141.5566,532.1953 C139.3566,532.1953 137.5566,533.9953 137.5566,536.1953 C137.5566,538.3953 139.3566,540.1953 141.5566,540.1953 C143.7566,540.1953 145.5566,538.3953 145.5566,536.1953 C145.5566,533.9953 143.7566,532.1953 141.5566,532.1953 M141.5566,533.1953 C143.2166,533.1953 144.5566,534.5353 144.5566,536.1953 C144.5566,537.8553 143.2166,539.1953 141.5566,539.1953 C139.8966,539.1953 138.5566,537.8553 138.5566,536.1953 C138.5566,534.5353 139.8966,533.1953 141.5566,533.1953 M141.0566,534.1953 L141.0566,536.4153 L141.2166,536.5453 L141.7166,537.0453 L142.0566,537.4253 L142.7766,536.7053 L142.3966,536.3653 L142.0566,536.0253 L142.0566,534.2153 L141.0566,534.2153" fill="#262626"/><text fill="#262626" font-family="sans-serif" font-size="12" font-weight="bold" lengthAdjust="spacing" textLength="34.4473" x="150.5117" y="540.6641">PT2M</text><rect fill="#FFFFFF" height="202.2656" style="stroke:#F4F4F4;stroke-width:1.5;" width="243.5156" x="39" y="573.1953"/><path d="M186.7734,573.1953 L186.7734,600.3281 L176.7734,610.3281 L39,610.3281" fill="none" style="stroke:#F4F4F4;stroke-width:1.5;"/><text fill="#262626" font-family="sans-serif" font-size="12" font-weight="bold" lengthAdjust="spacing" textLength="117.7734" x="52" y="595.7969">restore-item-price</text><ellipse cx="160.7578" cy="637.3281" fill="url(#g37bg5hgu73420)" rx="10" ry="10" style="stroke:#222222;stroke-width:1;"/><rect fill="url(#g37bg5hgu73421)" height="54.1328" style="stroke:#C6C6C6;stroke-width:0.5;" width="223.5156" x="49" y="667.3281"/><text fill="#262626" font-family="sans-serif" font-size="12" font-weight="bold" lengthAdjust="spacing" textLength="183.5156" x="69" y="698.9297">set price from workflow state</text><ellipse cx="160.7578" cy="752.4609" fill="none" rx="11" ry="11" style="stroke:#222222;stroke-width:1;"/><ellipse cx="160.7578" cy="752.4609" fill="#222222" rx="6" ry="6" style="stroke:#222222;stroke-width:1;"/><rect fill="#262626" height="6" rx="2.5" ry="2.5" style="stroke:#262626;stroke-width:1;" width="285.5156" x="11" y="795.4609"/><rect fill="url(#g37bg5hgu73421)" height="54.1328" style="stroke:#C6C6C6;stroke-width:0.5;" width="137.6406" x="316.5156" y="394.7969"/><text fill="#262626" font-family="sans-serif" font-size="12" font-weight="bold" lengthAdjust="spacing" textLength="97.6406" x="336.5156" y="426.3984">buy-new-items</text><polygon fill="url(#g37bg5hgu73421)" points="225.5781,811.4609,225.5781,811.4609,237.5781,823.4609,225.5781,835.4609,225.5781,835.4609,213.5781,823.4609,225.5781,811.4609" style="stroke:#F4F4F4;stroke-width:0.5;"/><ellipse cx="225.5781" cy="866.4609" fill="none" rx="11" ry="11" style="stroke:#222222;stroke-width:1;"/><ellipse cx="225.5781" cy="866.4609" fill="#222222" rx="6" ry="6" style="stroke:#222222;stroke-width:1;"/><line style="stroke:#C6C6C6;stroke-width:1;" x1="225.5781" x2="225.5781" y1="30" y2="50"/><polygon fill="#C6C6C6" points="221.5781,40,225.5781,50,229.5781,40,225.5781,44" style="stroke:#C6C6C6;stroke-width:1;"/><line style="stroke:#C6C6C6;stroke-width:1;" x1="225.5781" x2="225.5781" y1="138.2656" y2="158.2656"/><polygon fill="#C6C6C6" points="221.5781,148.2656,225.5781,158.2656,229.5781,148.2656,225.5781,152.2656" style="stroke:#C6C6C6;stroke-width:1;"/><line style="stroke:#C6C6C6;stroke-width:1;" x1="225.5781" x2="225.5781" y1="212.3984" y2="232.3984"/><polygon fill="#C6C6C6" points="221.5781,222.3984,225.5781,232.3984,229.5781,222.3984,225.5781,226.3984" style="stroke:#C6C6C6;stroke-width:1;"/><line style="stroke:#C6C6C6;stroke-width:1;" x1="160.7578" x2="160.7578" y1="647.3281" y2="667.3281"/><polygon fill="#C6C6C6" points="156.7578,657.3281,160.7578,667.3281,164.7578,657.3281,160.7578,661.3281" style="stroke:#C6C6C6;stroke-width:1;"/><line style="stroke:#C6C6C6;stroke-width:1;" x1="160.7578" x2="160.7578" y1="721.4609" y2="741.4609"/><polygon fill="#C6C6C6" points="156.7578,731.4609,160.7578,741.4609,164.7578,731.4609,160.7578,735.4609" style="stroke:#C6C6C6;stroke-width:1;"/><line style="stroke:#C6C6C6;stroke-width:1;" x1="160.7578" x2="160.7578" y1="563.1953" y2="627.3281"/><polygon fill="#C6C6C6" points="156.7578,617.3281,160.7578,627.3281,164.7578,617.3281,160.7578,621.3281" style="stroke:#C6C6C6;stroke-width:1;"/><line style="stroke:#C6C6C6;stroke-width:1;" x1="25" x2="25" y1="489.0625" y2="795.4609"/><polygon fill="#C6C6C6" points="21,785.4609,25,795.4609,29,785.4609,25,789.4609" style="stroke:#C6C6C6;stroke-width:1;"/><line style="stroke:#C6C6C6;stroke-width:1;" x1="160.7578" x2="160.7578" y1="489.0625" y2="509.0625"/><polygon fill="#C6C6C6" points="156.7578,499.0625,160.7578,509.0625,164.7578,499.0625,160.7578,503.0625" style="stroke:#C6C6C6;stroke-width:1;"/><line style="stroke:#C6C6C6;stroke-width:1;" x1="146.7578" x2="146.7578" y1="463.0625" y2="483.0625"/><polygon fill="#C6C6C6" points="142.7578,473.0625,146.7578,483.0625,150.7578,473.0625,146.7578,477.0625" style="stroke:#C6C6C6;stroke-width:1;"/><line style="stroke:#C6C6C6;stroke-width:1;" x1="165.5947" x2="146.7578" y1="357.7305" y2="357.7305"/><line style="stroke:#C6C6C6;stroke-width:1;" x1="146.7578" x2="146.7578" y1="357.7305" y2="394.7969"/><polygon fill="#C6C6C6" points="142.7578,384.7969,146.7578,394.7969,150.7578,384.7969,146.7578,388.7969" style="stroke:#C6C6C6;stroke-width:1;"/><line style="stroke:#C6C6C6;stroke-width:1;" x1="285.5615" x2="385.3359" y1="357.7305" y2="357.7305"/><line style="stroke:#C6C6C6;stroke-width:1;" x1="385.3359" x2="385.3359" y1="357.7305" y2="394.7969"/><polygon fill="#C6C6C6" points="381.3359,384.7969,385.3359,394.7969,389.3359,384.7969,385.3359,388.7969" style="stroke:#C6C6C6;stroke-width:1;"/><line style="stroke:#C6C6C6;stroke-width:1;" x1="146.7578" x2="146.7578" y1="801.4609" y2="823.4609"/><line style="stroke:#C6C6C6;stroke-width:1;" x1="146.7578" x2="213.5781" y1="823.4609" y2="823.4609"/><polygon fill="#C6C6C6" points="203.5781,819.4609,213.5781,823.4609,203.5781,827.4609,207.5781,823.4609" style="stroke:#C6C6C6;stroke-width:1;"/><line style="stroke:#C6C6C6;stroke-width:1;" x1="385.3359" x2="385.3359" y1="448.9297" y2="823.4609"/><line style="stroke:#C6C6C6;stroke-width:1;" x1="385.3359" x2="237.5781" y1="823.4609" y2="823.4609"/><polygon fill="#C6C6C6" points="247.5781,819.4609,237.5781,823.4609,247.5781,827.4609,243.5781,823.4609" style="stroke:#C6C6C6;stroke-width:1;"/><line style="stroke:#C6C6C6;stroke-width:1;" x1="225.5781" x2="225.5781" y1="320.6641" y2="340.6641"/><polygon fill="#C6C6C6" points="221.5781,330.6641,225.5781,340.6641,229.5781,330.6641,225.5781,334.6641" style="stroke:#C6C6C6;stroke-width:1;"/><line style="stroke:#C6C6C6;stroke-width:1;" x1="225.5781" x2="225.5781" y1="835.4609" y2="855.4609"/><polygon fill="#C6C6C6" points="221.5781,845.4609,225.5781,855.4609,229.5781,845.4609,225.5781,849.4609" style="stroke:#C6C6C6;stroke-width:1;"/><!--SRC=[NL5DQyCm3BtdLsWzZCvWwCPEQ-bbvy5WWvvTHsbC6ZlO2g6C_VT9iPkMwIJhuxsdvmTgiKUm9Xw3rwTeBbKY4wa2UDDQgUUDKbhpoxPeEvXCn3QC2Q494JnEa2ZORYlZIer3RGZ14VQvhjJs2hHxj6Ukx1d2KS4yS0gkoRFW4kpXTICRQN9aMrWNrjn_uWRhC4o-pdc1hbsoOVIaX-Wi5co9mrNjbm2yoyn28S4tT7Sfc9DnlXJcWnRHdzyl7_cO70DRvCW53wk8B2-YbgkpWXNyB8DyIx7p5WoSa62UXIQ67YPcRyv1t6G3xubaFmpByxTawEkR-d-MA7KSBvh_PfQKCXelP5ChmVi3]--></g></svg>