<svg xmlns="http://www.w3.org/2000/svg" xmlns:xlink="http://www.w3.org/1999/xlink" contentStyleType="text/css" data-diagram-type="ACTIVITY" height="691px" preserveAspectRatio="none" style="width:452px;height:691px;" version="1.1" viewBox="0 0 452 691" width="452px" zoomAndPan="magnify"><defs><linearGradient id="g14un51955iwx90" x1="50%" x2="50%" y1="0%" y2="100%"><stop offset="0%" stop-color="#525252"/><stop offset="100%" stop-color="#262626"/></linearGradient><linearGradient id="g14un51955iwx91" x1="50%" x2="50%" y1="0%" y2="100%"><stop offset="0%" stop-color="#F4F4F4"/><stop offset="100%" stop-color="#F4F4F4"/></linearGradient></defs><g><ellipse cx="227.165" cy="20" fill="url(#g14un51955iwx90)" rx="10" ry="10" style="stroke:#222222;stroke-width:1;"/><rect fill="url(#g14un51955iwx91)" height="54.1328" style="stroke:#C6C6C6;stroke-width:0.5;" width="222.373" x="115.9785" y="50"/><text fill="#262626" font-family="sans-serif" font-size="12" lengthAdjust="spacing" textLength="182.373" x="135.9785" y="81.6016">check warehouse for new stock</text><rect fill="url(#g14un51955iwx91)" height="54.1328" style="stroke:#C6C6C6;stroke-width:0.5;" width="144.9297" x="154.7002" y="124.1328"/><text fill="#262626" font-family="sans-serif" font-size="12" lengthAdjust="spacing" textLength="104.9297" x="174.7002" y="155.7344">update item stock</text><rect fill="url(#g14un51955iwx91)" height="54.1328" style="stroke:#C6C6C6;stroke-width:0.5;" width="170.9492" x="141.6904" y="198.2656"/><path d="M166.6904,221.3984 C164.4904,221.3984 162.6904,223.1984 162.6904,225.3984 C162.6904,227.5984 164.4904,229.3984 166.6904,229.3984 C168.8904,229.3984 170.6904,227.5984 170.6904,225.3984 C170.6904,223.1984 168.8904,221.3984 166.6904,221.3984 M166.6904,222.3984 C168.3504,222.3984 169.6904,223.7384 169.6904,225.3984 C169.6904,227.0584 168.3504,228.3984 166.6904,228.3984 C165.0304,228.3984 163.6904,227.0584 163.6904,225.3984 C163.6904,223.7384 165.0304,222.3984 166.6904,222.3984 M166.1904,223.3984 L166.1904,225.6184 L166.3504,225.7484 L166.8504,226.2484 L167.1904,226.6284 L167.9104,225.9084 L167.5304,225.5684 L167.1904,225.2284 L167.1904,223.4184 L166.1904,223.4184" fill="#262626"/><text fill="#262626" font-family="sans-serif" font-size="12" lengthAdjust="spacing" textLength="117.1523" x="175.4873" y="229.8672">Wait if stock is &gt; 40</text><polygon fill="url(#g14un51955iwx91)" points="182.9785,272.3984,271.3516,272.3984,283.3516,289.4648,271.3516,306.5313,182.9785,306.5313,170.9785,289.4648,182.9785,272.3984" style="stroke:#F4F4F4;stroke-width:0.5;"/><text fill="#262626" font-family="sans-serif" font-size="12" lengthAdjust="spacing" textLength="68.373" x="192.9785" y="294">check stock</text><rect fill="url(#g14un51955iwx91)" height="54.1328" style="stroke:#C6C6C6;stroke-width:0.5;" width="125.7461" x="11" y="350.6641"/><text fill="#262626" font-family="sans-serif" font-size="12" lengthAdjust="spacing" textLength="85.7461" x="31" y="382.2656">discount-price</text><rect fill="#262626" height="6" rx="2.5" ry="2.5" style="stroke:#262626;stroke-width:1;" width="284.584" x="156.7461" y="350.6641"/><rect fill="#FFFFFF" height="202.2656" style="stroke:#F4F4F4;stroke-width:1.5;" width="230.584" x="198.7461" y="376.6641"/><path d="M346.5195,376.6641 L346.5195,403.7969 L336.5195,413.7969 L198.7461,413.7969" fill="none" style="stroke:#F4F4F4;stroke-width:1.5;"/><text fill="#262626" font-family="sans-serif" font-size="12" font-weight="bold" lengthAdjust="spacing" textLength="117.7734" x="211.7461" y="399.2656">restore-item-price</text><ellipse cx="314.0381" cy="440.7969" fill="url(#g14un51955iwx90)" rx="10" ry="10" style="stroke:#222222;stroke-width:1;"/><rect fill="url(#g14un51955iwx91)" height="54.1328" style="stroke:#C6C6C6;stroke-width:0.5;" width="210.584" x="208.7461" y="470.7969"/><text fill="#262626" font-family="sans-serif" font-size="12" lengthAdjust="spacing" textLength="170.584" x="228.7461" y="502.3984">set price from workflow state</text><ellipse cx="314.0381" cy="555.9297" fill="none" rx="11" ry="11" style="stroke:#222222;stroke-width:1;"/><ellipse cx="314.0381" cy="555.9297" fill="#222222" rx="6" ry="6" style="stroke:#222222;stroke-width:1;"/><rect fill="#262626" height="6" rx="2.5" ry="2.5" style="stroke:#262626;stroke-width:1;" width="284.584" x="156.7461" y="598.9297"/><polygon fill="url(#g14un51955iwx91)" points="227.165,614.9297,227.165,614.9297,239.165,626.9297,227.165,638.9297,227.165,638.9297,215.165,626.9297,227.165,614.9297" style="stroke:#F4F4F4;stroke-width:0.5;"/><ellipse cx="227.165" cy="669.9297" fill="none" rx="11" ry="11" style="stroke:#222222;stroke-width:1;"/><ellipse cx="227.165" cy="669.9297" fill="#222222" rx="6" ry="6" style="stroke:#222222;stroke-width:1;"/><line style="stroke:#C6C6C6;stroke-width:1;" x1="227.165" x2="227.165" y1="30" y2="50"/><polygon fill="#C6C6C6" points="223.165,40,227.165,50,231.165,40,227.165,44" style="stroke:#C6C6C6;stroke-width:1;"/><line style="stroke:#C6C6C6;stroke-width:1;" x1="227.165" x2="227.165" y1="104.1328" y2="124.1328"/><polygon fill="#C6C6C6" points="223.165,114.1328,227.165,124.1328,231.165,114.1328,227.165,118.1328" style="stroke:#C6C6C6;stroke-width:1;"/><line style="stroke:#C6C6C6;stroke-width:1;" x1="227.165" x2="227.165" y1="178.2656" y2="198.2656"/><polygon fill="#C6C6C6" points="223.165,188.2656,227.165,198.2656,231.165,188.2656,227.165,192.2656" style="stroke:#C6C6C6;stroke-width:1;"/><line style="stroke:#C6C6C6;stroke-width:1;" x1="314.0381" x2="314.0381" y1="450.7969" y2="470.7969"/><polygon fill="#C6C6C6" points="310.0381,460.7969,314.0381,470.7969,318.0381,460.7969,314.0381,464.7969" style="stroke:#C6C6C6;stroke-width:1;"/><line style="stroke:#C6C6C6;stroke-width:1;" x1="314.0381" x2="314.0381" y1="524.9297" y2="544.9297"/><polygon fill="#C6C6C6" points="310.0381,534.9297,314.0381,544.9297,318.0381,534.9297,314.0381,538.9297" style="stroke:#C6C6C6;stroke-width:1;"/><line style="stroke:#C6C6C6;stroke-width:1;" x1="170.7461" x2="170.7461" y1="356.6641" y2="598.9297"/><polygon fill="#C6C6C6" points="166.7461,588.9297,170.7461,598.9297,174.7461,588.9297,170.7461,592.9297" style="stroke:#C6C6C6;stroke-width:1;"/><line style="stroke:#C6C6C6;stroke-width:1;" x1="314.0381" x2="314.0381" y1="356.6641" y2="430.7969"/><polygon fill="#C6C6C6" points="310.0381,420.7969,314.0381,430.7969,318.0381,420.7969,314.0381,424.7969" style="stroke:#C6C6C6;stroke-width:1;"/><line style="stroke:#C6C6C6;stroke-width:1;" x1="170.9785" x2="73.873" y1="289.4648" y2="289.4648"/><line style="stroke:#C6C6C6;stroke-width:1;" x1="73.873" x2="73.873" y1="289.4648" y2="350.6641"/><polygon fill="#C6C6C6" points="69.873,340.6641,73.873,350.6641,77.873,340.6641,73.873,344.6641" style="stroke:#C6C6C6;stroke-width:1;"/><text fill="#262626" font-family="sans-serif" font-size="12" lengthAdjust="spacing" textLength="28.5117" x="83.873" y="329.1641">&gt; 40</text><line style="stroke:#C6C6C6;stroke-width:1;" x1="283.3516" x2="300.0381" y1="289.4648" y2="289.4648"/><line style="stroke:#C6C6C6;stroke-width:1;" x1="300.0381" x2="300.0381" y1="289.4648" y2="350.6641"/><polygon fill="#C6C6C6" points="296.0381,340.6641,300.0381,350.6641,304.0381,340.6641,300.0381,344.6641" style="stroke:#C6C6C6;stroke-width:1;"/><text fill="#262626" font-family="sans-serif" font-size="12" lengthAdjust="spacing" textLength="28.5117" x="310.0381" y="329.1641">&lt; 40</text><line style="stroke:#C6C6C6;stroke-width:1;" x1="73.873" x2="73.873" y1="404.7969" y2="626.9297"/><line style="stroke:#C6C6C6;stroke-width:1;" x1="73.873" x2="215.165" y1="626.9297" y2="626.9297"/><polygon fill="#C6C6C6" points="205.165,622.9297,215.165,626.9297,205.165,630.9297,209.165,626.9297" style="stroke:#C6C6C6;stroke-width:1;"/><line style="stroke:#C6C6C6;stroke-width:1;" x1="300.0381" x2="300.0381" y1="604.9297" y2="626.9297"/><line style="stroke:#C6C6C6;stroke-width:1;" x1="300.0381" x2="239.165" y1="626.9297" y2="626.9297"/><polygon fill="#C6C6C6" points="249.165,622.9297,239.165,626.9297,249.165,630.9297,245.165,626.9297" style="stroke:#C6C6C6;stroke-width:1;"/><line style="stroke:#C6C6C6;stroke-width:1;" x1="227.165" x2="227.165" y1="252.3984" y2="272.3984"/><polygon fill="#C6C6C6" points="223.165,262.3984,227.165,272.3984,231.165,262.3984,227.165,266.3984" style="stroke:#C6C6C6;stroke-width:1;"/><line style="stroke:#C6C6C6;stroke-width:1;" x1="227.165" x2="227.165" y1="638.9297" y2="658.9297"/><polygon fill="#C6C6C6" points="223.165,648.9297,227.165,658.9297,231.165,648.9297,227.165,652.9297" style="stroke:#C6C6C6;stroke-width:1;"/><!--SRC=[FO-nRiD028RtUmgQeKe6InqwsL5UepF1E4QE3ul3igggxrvyRhiS9txuzF7Y8yyCX7RNt3mCFrDnD4yjZKmJR6WywbeO1ZN8l45nfQbBxRhqw0pYFF_thg_qZDyDFb0SP3W2a08tU7_hKjd4QOJpmQxX9H46_RmFN5BRIo5TipUB2N7t6rvh60PJVG0VA3ajuIakck5a733ZPhSvLazVVuSKTgWj64nds08mF7K_9Fp3oNL9tubpN_bH3yiQ_000]--></g></svg>