<svg xmlns="http://www.w3.org/2000/svg" xmlns:xlink="http://www.w3.org/1999/xlink" contentStyleType="text/css" data-diagram-type="ACTIVITY" height="491px" preserveAspectRatio="none" style="width:349px;height:491px;" version="1.1" viewBox="0 0 349 491" width="349px" zoomAndPan="magnify"><defs><linearGradient id="gtok9h9n4mhkq0" x1="50%" x2="50%" y1="0%" y2="100%"><stop offset="0%" stop-color="#525252"/><stop offset="100%" stop-color="#262626"/></linearGradient><linearGradient id="gtok9h9n4mhkq1" x1="50%" x2="50%" y1="0%" y2="100%"><stop offset="0%" stop-color="#F4F4F4"/><stop offset="100%" stop-color="#F4F4F4"/></linearGradient></defs><g><ellipse cx="174.6309" cy="20" fill="url(#gtok9h9n4mhkq0)" rx="10" ry="10" style="stroke:#222222;stroke-width:1;"/><rect fill="url(#gtok9h9n4mhkq1)" height="54.1328" style="stroke:#C6C6C6;stroke-width:0.5;" width="222.373" x="63.4443" y="50"/><text fill="#262626" font-family="sans-serif" font-size="12" lengthAdjust="spacing" textLength="182.373" x="83.4443" y="81.6016">check warehouse for new stock</text><rect fill="url(#gtok9h9n4mhkq1)" height="54.1328" style="stroke:#C6C6C6;stroke-width:0.5;" width="144.9297" x="102.166" y="124.1328"/><text fill="#262626" font-family="sans-serif" font-size="12" lengthAdjust="spacing" textLength="104.9297" x="122.166" y="155.7344">update item stock</text><rect fill="url(#gtok9h9n4mhkq1)" height="54.1328" style="stroke:#C6C6C6;stroke-width:0.5;" width="170.9492" x="89.1563" y="198.2656"/><path d="M114.1563,221.3984 C111.9563,221.3984 110.1563,223.1984 110.1563,225.3984 C110.1563,227.5984 111.9563,229.3984 114.1563,229.3984 C116.3563,229.3984 118.1563,227.5984 118.1563,225.3984 C118.1563,223.1984 116.3563,221.3984 114.1563,221.3984 M114.1563,222.3984 C115.8163,222.3984 117.1563,223.7384 117.1563,225.3984 C117.1563,227.0584 115.8163,228.3984 114.1563,228.3984 C112.4963,228.3984 111.1563,227.0584 111.1563,225.3984 C111.1563,223.7384 112.4963,222.3984 114.1563,222.3984 M113.6563,223.3984 L113.6563,225.6184 L113.8163,225.7484 L114.3163,226.2484 L114.6563,226.6284 L115.3763,225.9084 L114.9963,225.5684 L114.6563,225.2284 L114.6563,223.4184 L113.6563,223.4184" fill="#262626"/><text fill="#262626" font-family="sans-serif" font-size="12" lengthAdjust="spacing" textLength="117.1523" x="122.9531" y="229.8672">Wait if stock is &gt; 40</text><polygon fill="url(#gtok9h9n4mhkq1)" points="130.4443,272.3984,218.8174,272.3984,230.8174,289.4648,218.8174,306.5313,130.4443,306.5313,118.4443,289.4648,130.4443,272.3984" style="stroke:#F4F4F4;stroke-width:0.5;"/><text fill="#262626" font-family="sans-serif" font-size="12" lengthAdjust="spacing" textLength="68.373" x="140.4443" y="294">check stock</text><rect fill="url(#gtok9h9n4mhkq1)" height="54.1328" style="stroke:#C6C6C6;stroke-width:0.5;" width="125.7461" x="11" y="350.6641"/><text fill="#262626" font-family="sans-serif" font-size="12" lengthAdjust="spacing" textLength="85.7461" x="31" y="382.2656">discount-price</text><rect fill="url(#gtok9h9n4mhkq1)" height="54.1328" style="stroke:#C6C6C6;stroke-width:0.5;" width="181.5156" x="156.7461" y="350.6641"/><text fill="#262626" font-family="sans-serif" font-size="12" lengthAdjust="spacing" textLength="141.5156" x="176.7461" y="382.2656">check-warehouse-again</text><polygon fill="url(#gtok9h9n4mhkq1)" points="174.6309,414.7969,174.6309,414.7969,186.6309,426.7969,174.6309,438.7969,174.6309,438.7969,162.6309,426.7969,174.6309,414.7969" style="stroke:#F4F4F4;stroke-width:0.5;"/><ellipse cx="174.6309" cy="469.7969" fill="none" rx="11" ry="11" style="stroke:#222222;stroke-width:1;"/><ellipse cx="174.6309" cy="469.7969" fill="#222222" rx="6" ry="6" style="stroke:#222222;stroke-width:1;"/><line style="stroke:#C6C6C6;stroke-width:1;" x1="174.6309" x2="174.6309" y1="30" y2="50"/><polygon fill="#C6C6C6" points="170.6309,40,174.6309,50,178.6309,40,174.6309,44" style="stroke:#C6C6C6;stroke-width:1;"/><line style="stroke:#C6C6C6;stroke-width:1;" x1="174.6309" x2="174.6309" y1="104.1328" y2="124.1328"/><polygon fill="#C6C6C6" points="170.6309,114.1328,174.6309,124.1328,178.6309,114.1328,174.6309,118.1328" style="stroke:#C6C6C6;stroke-width:1;"/><line style="stroke:#C6C6C6;stroke-width:1;" x1="174.6309" x2="174.6309" y1="178.2656" y2="198.2656"/><polygon fill="#C6C6C6" points="170.6309,188.2656,174.6309,198.2656,178.6309,188.2656,174.6309,192.2656" style="stroke:#C6C6C6;stroke-width:1;"/><line style="stroke:#C6C6C6;stroke-width:1;" x1="118.4443" x2="73.873" y1="289.4648" y2="289.4648"/><line style="stroke:#C6C6C6;stroke-width:1;" x1="73.873" x2="73.873" y1="289.4648" y2="350.6641"/><polygon fill="#C6C6C6" points="69.873,340.6641,73.873,350.6641,77.873,340.6641,73.873,344.6641" style="stroke:#C6C6C6;stroke-width:1;"/><text fill="#262626" font-family="sans-serif" font-size="12" lengthAdjust="spacing" textLength="28.5117" x="83.873" y="329.1641">&gt; 40</text><line style="stroke:#C6C6C6;stroke-width:1;" x1="230.8174" x2="247.5039" y1="289.4648" y2="289.4648"/><line style="stroke:#C6C6C6;stroke-width:1;" x1="247.5039" x2="247.5039" y1="289.4648" y2="350.6641"/><polygon fill="#C6C6C6" points="243.5039,340.6641,247.5039,350.6641,251.5039,340.6641,247.5039,344.6641" style="stroke:#C6C6C6;stroke-width:1;"/><text fill="#262626" font-family="sans-serif" font-size="12" lengthAdjust="spacing" textLength="28.5117" x="257.5039" y="329.1641">&lt; 40</text><line style="stroke:#C6C6C6;stroke-width:1;" x1="73.873" x2="73.873" y1="404.7969" y2="426.7969"/><line style="stroke:#C6C6C6;stroke-width:1;" x1="73.873" x2="162.6309" y1="426.7969" y2="426.7969"/><polygon fill="#C6C6C6" points="152.6309,422.7969,162.6309,426.7969,152.6309,430.7969,156.6309,426.7969" style="stroke:#C6C6C6;stroke-width:1;"/><line style="stroke:#C6C6C6;stroke-width:1;" x1="247.5039" x2="247.5039" y1="404.7969" y2="426.7969"/><line style="stroke:#C6C6C6;stroke-width:1;" x1="247.5039" x2="186.6309" y1="426.7969" y2="426.7969"/><polygon fill="#C6C6C6" points="196.6309,422.7969,186.6309,426.7969,196.6309,430.7969,192.6309,426.7969" style="stroke:#C6C6C6;stroke-width:1;"/><line style="stroke:#C6C6C6;stroke-width:1;" x1="174.6309" x2="174.6309" y1="252.3984" y2="272.3984"/><polygon fill="#C6C6C6" points="170.6309,262.3984,174.6309,272.3984,178.6309,262.3984,174.6309,266.3984" style="stroke:#C6C6C6;stroke-width:1;"/><line style="stroke:#C6C6C6;stroke-width:1;" x1="174.6309" x2="174.6309" y1="438.7969" y2="458.7969"/><polygon fill="#C6C6C6" points="170.6309,448.7969,174.6309,458.7969,178.6309,448.7969,174.6309,452.7969" style="stroke:#C6C6C6;stroke-width:1;"/><!--SRC=[FOun3eCm34NtdC9TAXWYTUX44DVeR8mX5YL1YH7gxKj9nVRrd_tqR-fvOI1CVGnsIlWnMJ6fQSWppR1ZOX-tp336185to1ffTgRPrW6LGPINgsllz3vI1oyK1HaB0CdGmVFXJDv5oKDLt2Ui3U5Xhtu7jMa6oHIte7PDGkp-i2tmVBFN98iJId26mr34n_IuVW40]--></g></svg>