<svg xmlns="http://www.w3.org/2000/svg" xmlns:xlink="http://www.w3.org/1999/xlink" contentStyleType="text/css" data-diagram-type="ACTIVITY" height="962px" preserveAspectRatio="none" style="width:393px;height:962px;" version="1.1" viewBox="0 0 393 962" width="393px" zoomAndPan="magnify"><defs><linearGradient id="g1wtc3s2fq3vzf0" x1="50%" x2="50%" y1="0%" y2="100%"><stop offset="0%" stop-color="#525252"/><stop offset="100%" stop-color="#262626"/></linearGradient><linearGradient id="g1wtc3s2fq3vzf1" x1="50%" x2="50%" y1="0%" y2="100%"><stop offset="0%" stop-color="#F4F4F4"/><stop offset="100%" stop-color="#F4F4F4"/></linearGradient></defs><g><ellipse cx="196.707" cy="20" fill="url(#g1wtc3s2fq3vzf0)" rx="10" ry="10" style="stroke:#222222;stroke-width:1;"/><rect fill="url(#g1wtc3s2fq3vzf1)" height="88.2656" style="stroke:#C6C6C6;stroke-width:0.5;" width="222.373" x="85.5205" y="50"/><line style="stroke:#C6C6C6;stroke-width:1;" x1="85.5205" x2="178.791" y1="87.0664" y2="87.0664"/><text fill="#262626" font-family="sans-serif" font-size="12" font-weight="bold" lengthAdjust="spacing" textLength="15.832" x="188.791" y="91.1016">10</text><line style="stroke:#C6C6C6;stroke-width:1;" x1="214.623" x2="307.8936" y1="87.0664" y2="87.0664"/><text fill="#262626" font-family="sans-serif" font-size="12" lengthAdjust="spacing" textLength="182.373" x="105.5205" y="115.7344">check warehouse for new stock</text><rect fill="url(#g1wtc3s2fq3vzf1)" height="54.1328" style="stroke:#C6C6C6;stroke-width:0.5;" width="151.3691" x="121.0225" y="158.2656"/><text fill="#262626" font-family="sans-serif" font-size="12" font-weight="bold" lengthAdjust="spacing" textLength="111.3691" x="141.0225" y="189.8672">update item stock</text><rect fill="url(#g1wtc3s2fq3vzf1)" height="88.2656" style="stroke:#C6C6C6;stroke-width:0.5;" width="157.1523" x="118.1309" y="232.3984"/><line style="stroke:#C6C6C6;stroke-width:1;" x1="118.1309" x2="166.6426" y1="269.4648" y2="269.4648"/><path d="M181.6426,265.0313 C179.4426,265.0313 177.6426,266.8313 177.6426,269.0313 C177.6426,271.2313 179.4426,273.0313 181.6426,273.0313 C183.8426,273.0313 185.6426,271.2313 185.6426,269.0313 C185.6426,266.8313 183.8426,265.0313 181.6426,265.0313 M181.6426,266.0313 C183.3026,266.0313 184.6426,267.3713 184.6426,269.0313 C184.6426,270.6913 183.3026,272.0313 181.6426,272.0313 C179.9826,272.0313 178.6426,270.6913 178.6426,269.0313 C178.6426,267.3713 179.9826,266.0313 181.6426,266.0313 M181.1426,267.0313 L181.1426,269.2513 L181.3026,269.3813 L181.8026,269.8813 L182.1426,270.2613 L182.8626,269.5413 L182.4826,269.2013 L182.1426,268.8613 L182.1426,267.0513 L181.1426,267.0513" fill="#262626"/><text fill="#262626" font-family="sans-serif" font-size="12" font-weight="bold" lengthAdjust="spacing" textLength="26.1738" x="190.5977" y="273.5">wait</text><line style="stroke:#C6C6C6;stroke-width:1;" x1="226.7715" x2="275.2832" y1="269.4648" y2="269.4648"/><text fill="#262626" font-family="sans-serif" font-size="12" lengthAdjust="spacing" textLength="117.1523" x="138.1309" y="298.1328">Wait if stock is &gt; 40</text><polygon fill="url(#g1wtc3s2fq3vzf1)" points="148.7236,340.6641,244.6904,340.6641,256.6904,357.7305,244.6904,374.7969,148.7236,374.7969,136.7236,357.7305,148.7236,340.6641" style="stroke:#F4F4F4;stroke-width:0.5;"/><text fill="#262626" font-family="sans-serif" font-size="12" lengthAdjust="spacing" textLength="68.373" x="162.5205" y="362.2656">check stock</text><rect fill="url(#g1wtc3s2fq3vzf1)" height="68.2656" style="stroke:#C6C6C6;stroke-width:0.5;" width="202.4043" x="16.6846" y="394.7969"/><text fill="#262626" font-family="sans-serif" font-size="12" font-weight="bold" lengthAdjust="spacing" text-decoration="line-through" textLength="91.7051" x="36.6846" y="426.3984">discount-price</text><text fill="#262626" font-family="sans-serif" font-size="12" lengthAdjust="spacing" textLength="162.4043" x="36.6846" y="440.5313">WarehouseStockCount &gt; 40</text><rect fill="#262626" height="6" rx="2.5" ry="2.5" style="stroke:#262626;stroke-width:1;" width="213.7734" x="11" y="483.0625"/><rect fill="url(#g1wtc3s2fq3vzf1)" height="54.1328" style="stroke:#C6C6C6;stroke-width:0.5;" width="88.4023" x="87.6855" y="509.0625"/><path d="M112.6855,532.1953 C110.4855,532.1953 108.6855,533.9953 108.6855,536.1953 C108.6855,538.3953 110.4855,540.1953 112.6855,540.1953 C114.8855,540.1953 116.6855,538.3953 116.6855,536.1953 C116.6855,533.9953 114.8855,532.1953 112.6855,532.1953 M112.6855,533.1953 C114.3455,533.1953 115.6855,534.5353 115.6855,536.1953 C115.6855,537.8553 114.3455,539.1953 112.6855,539.1953 C111.0255,539.1953 109.6855,537.8553 109.6855,536.1953 C109.6855,534.5353 111.0255,533.1953 112.6855,533.1953 M112.1855,534.1953 L112.1855,536.4153 L112.3455,536.5453 L112.8455,537.0453 L113.1855,537.4253 L113.9055,536.7053 L113.5255,536.3653 L113.1855,536.0253 L113.1855,534.2153 L112.1855,534.2153" fill="#262626"/><text fill="#262626" font-family="sans-serif" font-size="12" font-weight="bold" lengthAdjust="spacing" textLength="34.4473" x="121.6406" y="540.6641">PT2M</text><rect fill="#FFFFFF" height="276.3984" style="stroke:#F4F4F4;stroke-width:1.5;" width="157.7734" x="53" y="573.1953"/><path d="M200.7734,573.1953 L200.7734,600.3281 L190.7734,610.3281 L53,610.3281" fill="none" style="stroke:#F4F4F4;stroke-width:1.5;"/><text fill="#262626" font-family="sans-serif" font-size="12" font-weight="bold" lengthAdjust="spacing" textLength="117.7734" x="66" y="595.7969">restore-item-price</text><ellipse cx="131.8867" cy="637.3281" fill="url(#g1wtc3s2fq3vzf0)" rx="10" ry="10" style="stroke:#222222;stroke-width:1;"/><rect fill="url(#g1wtc3s2fq3vzf1)" height="54.1328" style="stroke:#C6C6C6;stroke-width:0.5;" width="112.8672" x="75.4531" y="667.3281"/><text fill="#262626" font-family="sans-serif" font-size="12" font-weight="bold" lengthAdjust="spacing" textLength="72.8672" x="95.4531" y="698.9297">updatePrice</text><rect fill="url(#g1wtc3s2fq3vzf1)" height="54.1328" style="stroke:#C6C6C6;stroke-width:0.5;" width="95.4004" x="84.1865" y="741.4609"/><text fill="#262626" font-family="sans-serif" font-size="12" font-weight="bold" lengthAdjust="spacing" textLength="55.4004" x="104.1865" y="773.0625">sendMail</text><ellipse cx="131.8867" cy="826.5938" fill="none" rx="11" ry="11" style="stroke:#222222;stroke-width:1;"/><ellipse cx="131.8867" cy="826.5938" fill="#222222" rx="6" ry="6" style="stroke:#222222;stroke-width:1;"/><rect fill="#262626" height="6" rx="2.5" ry="2.5" style="stroke:#262626;stroke-width:1;" width="213.7734" x="11" y="869.5938"/><rect fill="url(#g1wtc3s2fq3vzf1)" height="54.1328" style="stroke:#C6C6C6;stroke-width:0.5;" width="137.6406" x="244.7734" y="394.7969"/><text fill="#262626" font-family="sans-serif" font-size="12" font-weight="bold" lengthAdjust="spacing" textLength="97.6406" x="264.7734" y="426.3984">buy-new-items</text><polygon fill="url(#g1wtc3s2fq3vzf1)" points="196.707,885.5938,196.707,885.5938,208.707,897.5938,196.707,909.5938,196.707,909.5938,184.707,897.5938,196.707,885.5938" style="stroke:#F4F4F4;stroke-width:0.5;"/><ellipse cx="196.707" cy="940.5938" fill="none" rx="11" ry="11" style="stroke:#222222;stroke-width:1;"/><ellipse cx="196.707" cy="940.5938" fill="#222222" rx="6" ry="6" style="stroke:#222222;stroke-width:1;"/><line style="stroke:#C6C6C6;stroke-width:1;" x1="196.707" x2="196.707" y1="30" y2="50"/><polygon fill="#C6C6C6" points="192.707,40,196.707,50,200.707,40,196.707,44" style="stroke:#C6C6C6;stroke-width:1;"/><line style="stroke:#C6C6C6;stroke-width:1;" x1="196.707" x2="196.707" y1="138.2656" y2="158.2656"/><polygon fill="#C6C6C6" points="192.707,148.2656,196.707,158.2656,200.707,148.2656,196.707,152.2656" style="stroke:#C6C6C6;stroke-width:1;"/><line style="stroke:#C6C6C6;stroke-width:1;" x1="196.707" x2="196.707" y1="212.3984" y2="232.3984"/><polygon fill="#C6C6C6" points="192.707,222.3984,196.707,232.3984,200.707,222.3984,196.707,226.3984" style="stroke:#C6C6C6;stroke-width:1;"/><line style="stroke:#C6C6C6;stroke-width:1;" x1="131.8867" x2="131.8867" y1="647.3281" y2="667.3281"/><polygon fill="#C6C6C6" points="127.8867,657.3281,131.8867,667.3281,135.8867,657.3281,131.8867,661.3281" style="stroke:#C6C6C6;stroke-width:1;"/><line style="stroke:#C6C6C6;stroke-width:1;" x1="131.8867" x2="131.8867" y1="721.4609" y2="741.4609"/><polygon fill="#C6C6C6" points="127.8867,731.4609,131.8867,741.4609,135.8867,731.4609,131.8867,735.4609" style="stroke:#C6C6C6;stroke-width:1;"/><line style="stroke:#C6C6C6;stroke-width:1;" x1="131.8867" x2="131.8867" y1="795.5938" y2="815.5938"/><polygon fill="#C6C6C6" points="127.8867,805.5938,131.8867,815.5938,135.8867,805.5938,131.8867,809.5938" style="stroke:#C6C6C6;stroke-width:1;"/><line style="stroke:#C6C6C6;stroke-width:1;" x1="131.8867" x2="131.8867" y1="563.1953" y2="627.3281"/><polygon fill="#C6C6C6" points="127.8867,617.3281,131.8867,627.3281,135.8867,617.3281,131.8867,621.3281" style="stroke:#C6C6C6;stroke-width:1;"/><line style="stroke:#C6C6C6;stroke-width:1;" x1="25" x2="25" y1="489.0625" y2="869.5938"/><polygon fill="#C6C6C6" points="21,859.5938,25,869.5938,29,859.5938,25,863.5938" style="stroke:#C6C6C6;stroke-width:1;"/><line style="stroke:#C6C6C6;stroke-width:1;" x1="131.8867" x2="131.8867" y1="489.0625" y2="509.0625"/><polygon fill="#C6C6C6" points="127.8867,499.0625,131.8867,509.0625,135.8867,499.0625,131.8867,503.0625" style="stroke:#C6C6C6;stroke-width:1;"/><line style="stroke:#C6C6C6;stroke-width:1;" x1="117.8867" x2="117.8867" y1="463.0625" y2="483.0625"/><polygon fill="#C6C6C6" points="113.8867,473.0625,117.8867,483.0625,121.8867,473.0625,117.8867,477.0625" style="stroke:#C6C6C6;stroke-width:1;"/><line style="stroke:#C6C6C6;stroke-width:1;" x1="136.7236" x2="117.8867" y1="357.7305" y2="357.7305"/><line style="stroke:#C6C6C6;stroke-width:1;" x1="117.8867" x2="117.8867" y1="357.7305" y2="394.7969"/><polygon fill="#C6C6C6" points="113.8867,384.7969,117.8867,394.7969,121.8867,384.7969,117.8867,388.7969" style="stroke:#C6C6C6;stroke-width:1;"/><line style="stroke:#C6C6C6;stroke-width:1;" x1="256.6904" x2="313.5938" y1="357.7305" y2="357.7305"/><line style="stroke:#C6C6C6;stroke-width:1;" x1="313.5938" x2="313.5938" y1="357.7305" y2="394.7969"/><polygon fill="#C6C6C6" points="309.5938,384.7969,313.5938,394.7969,317.5938,384.7969,313.5938,388.7969" style="stroke:#C6C6C6;stroke-width:1;"/><line style="stroke:#C6C6C6;stroke-width:1;" x1="117.8867" x2="117.8867" y1="875.5938" y2="897.5938"/><line style="stroke:#C6C6C6;stroke-width:1;" x1="117.8867" x2="184.707" y1="897.5938" y2="897.5938"/><polygon fill="#C6C6C6" points="174.707,893.5938,184.707,897.5938,174.707,901.5938,178.707,897.5938" style="stroke:#C6C6C6;stroke-width:1;"/><line style="stroke:#C6C6C6;stroke-width:1;" x1="313.5938" x2="313.5938" y1="448.9297" y2="897.5938"/><line style="stroke:#C6C6C6;stroke-width:1;" x1="313.5938" x2="208.707" y1="897.5938" y2="897.5938"/><polygon fill="#C6C6C6" points="218.707,893.5938,208.707,897.5938,218.707,901.5938,214.707,897.5938" style="stroke:#C6C6C6;stroke-width:1;"/><line style="stroke:#C6C6C6;stroke-width:1;" x1="196.707" x2="196.707" y1="320.6641" y2="340.6641"/><polygon fill="#C6C6C6" points="192.707,330.6641,196.707,340.6641,200.707,330.6641,196.707,334.6641" style="stroke:#C6C6C6;stroke-width:1;"/><line style="stroke:#C6C6C6;stroke-width:1;" x1="196.707" x2="196.707" y1="909.5938" y2="929.5938"/><polygon fill="#C6C6C6" points="192.707,919.5938,196.707,929.5938,200.707,919.5938,196.707,923.5938" style="stroke:#C6C6C6;stroke-width:1;"/><!--SRC=[NL5DQm8n4BtlhvXwA3OGiAMdRl7Iio1Oy1opepki9aioooBI_zw9YMlhdEOhRzvxUU8MJmZMX9rt-X3CkOfi0bS07rehzRfGIckfR8ksWz44RFqG4VO-WCCH8dlRrMbTgQ5l32CGuodtbQflG9_FzYYTfK0G5yojf43xl0iKOGdlY_GYZiIsXNcvckSlCX0UHexFSrwW6uhM3uvr7yXYmKwnlR7T982lj3ETI24QkZyfc8CXLnfNGHFfzVVRAel9qOj5nEGTp08AlO0wgSuCPd2P5aLBiVCUarFhpBT-d4PqpShGyVz8plHJ-LCosRpBUF16gTrmrl99Lsuneyc3x6wLy7u1]--></g></svg>