<svg xmlns="http://www.w3.org/2000/svg" xmlns:xlink="http://www.w3.org/1999/xlink" contentStyleType="text/css" data-diagram-type="ACTIVITY" height="654px" preserveAspectRatio="none" style="width:428px;height:654px;background:#FFFFFF;" version="1.1" viewBox="0 0 428 654" width="428px" zoomAndPan="magnify"><defs><linearGradient id="g1x93u5h6nq1mq0" x1="50%" x2="50%" y1="0%" y2="100%"><stop offset="0%" stop-color="#525252"/><stop offset="100%" stop-color="#262626"/></linearGradient><filter height="300%" id="f1x93u5h6nq1mq" width="300%" x="-1" y="-1"><feGaussianBlur result="blurOut" stdDeviation="2"/><feColorMatrix in="blurOut" result="blurOut2" type="matrix" values="0 0 0 0 0 0 0 0 0 0 0 0 0 0 0 0 0 0 .4 0"/><feOffset dx="4" dy="4" in="blurOut2" result="blurOut3"/><feBlend in="SourceGraphic" in2="blurOut3" mode="normal"/></filter><linearGradient id="g1x93u5h6nq1mq1" x1="50%" x2="50%" y1="0%" y2="100%"><stop offset="0%" stop-color="#F4F4F4"/><stop offset="100%" stop-color="#F4F4F4"/></linearGradient></defs><g><ellipse cx="211.1221" cy="20" fill="url(#g1x93u5h6nq1mq0)" filter="url(#f1x93u5h6nq1mq)" rx="10" ry="10" style="stroke:#222222;stroke-width:1;"/><rect fill="url(#g1x93u5h6nq1mq1)" filter="url(#f1x93u5h6nq1mq)" height="54.6211" style="stroke:#495057;stroke-width:0.5;" width="206.373" x="107.9355" y="50"/><text fill="#262626" font-family="sans-serif" font-size="14" font-weight="bold" lengthAdjust="spacing" textLength="18.4707" x="201.8867" y="75.5352">10</text><text fill="#262626" font-family="sans-serif" font-size="12" lengthAdjust="spacing" textLength="182.373" x="119.9355" y="90.0898">check warehouse for new stock</text><rect fill="url(#g1x93u5h6nq1mq1)" filter="url(#f1x93u5h6nq1mq)" height="40.4883" style="stroke:#495057;stroke-width:0.5;" width="153.9307" x="134.1567" y="124.6211"/><text fill="#262626" font-family="sans-serif" font-size="14" font-weight="bold" lengthAdjust="spacing" textLength="129.9307" x="146.1567" y="150.1563">update item stock</text><rect fill="url(#g1x93u5h6nq1mq1)" filter="url(#f1x93u5h6nq1mq)" height="54.6211" style="stroke:#495057;stroke-width:0.5;" width="141.1523" x="140.5459" y="185.1094"/><path d="M193.5469,200.7643 C190.9802,200.7643 188.8802,202.8643 188.8802,205.431 C188.8802,207.9977 190.9802,210.0977 193.5469,210.0977 C196.1135,210.0977 198.2135,207.9977 198.2135,205.431 C198.2135,202.8643 196.1135,200.7643 193.5469,200.7643 M193.5469,201.931 C195.4835,201.931 197.0469,203.4943 197.0469,205.431 C197.0469,207.3677 195.4835,208.931 193.5469,208.931 C191.6102,208.931 190.0469,207.3677 190.0469,205.431 C190.0469,203.4943 191.6102,201.931 193.5469,201.931 M192.9635,203.0977 L192.9635,205.6877 L193.1502,205.8393 L193.7335,206.4227 L194.1302,206.866 L194.9702,206.026 L194.5269,205.6293 L194.1302,205.2327 L194.1302,203.121 L192.9635,203.121" fill="#262626"/><text fill="#262626" font-family="sans-serif" font-size="14" font-weight="bold" lengthAdjust="spacing" textLength="30.5361" x="203.8278" y="210.6445">wait</text><text fill="#262626" font-family="sans-serif" font-size="12" lengthAdjust="spacing" textLength="117.1523" x="152.5459" y="225.1992">Wait if stock is &gt; 40</text><polygon fill="url(#g1x93u5h6nq1mq1)" filter="url(#f1x93u5h6nq1mq)" points="171.1387,259.7305,251.1055,259.7305,263.1055,271.7305,251.1055,283.7305,171.1387,283.7305,159.1387,271.7305,171.1387,259.7305" style="stroke:#495057;stroke-width:0.5;"/><text fill="#262626" font-family="sans-serif" font-size="12" lengthAdjust="spacing" textLength="68.373" x="176.9355" y="276.2656">check stock</text><rect fill="url(#g1x93u5h6nq1mq1)" filter="url(#f1x93u5h6nq1mq)" height="40.4883" style="stroke:#495057;stroke-width:0.5;" width="80.1361" x="39.264" y="329.9961"/><path d="M56.9307,345.651 C54.364,345.651 52.264,347.751 52.264,350.3177 C52.264,352.8844 54.364,354.9844 56.9307,354.9844 C59.4973,354.9844 61.5973,352.8844 61.5973,350.3177 C61.5973,347.751 59.4973,345.651 56.9307,345.651 M56.9307,346.8177 C58.8673,346.8177 60.4307,348.381 60.4307,350.3177 C60.4307,352.2544 58.8673,353.8177 56.9307,353.8177 C54.994,353.8177 53.4307,352.2544 53.4307,350.3177 C53.4307,348.381 54.994,346.8177 56.9307,346.8177 M56.3473,347.9844 L56.3473,350.5744 L56.534,350.726 L57.1173,351.3094 L57.514,351.7527 L58.354,350.9127 L57.9107,350.516 L57.514,350.1194 L57.514,348.0077 L56.3473,348.0077" fill="#262626"/><text fill="#262626" font-family="sans-serif" font-size="14" font-weight="bold" lengthAdjust="spacing" textLength="40.1885" x="67.2116" y="355.5313">PT2M</text><rect fill="#FFFFFF" filter="url(#f1x93u5h6nq1mq)" height="233.1094" style="stroke:#495057;stroke-width:1.5;" width="136.6641" x="11" y="404.6172"/><path d="M137.6641,404.6172 L137.6641,415.75 L127.6641,425.75 L11,425.75" fill="none" style="stroke:#495057;stroke-width:1.5;"/><text fill="#262626" font-family="sans-serif" font-size="12" font-weight="bold" lengthAdjust="spacing" textLength="112.6641" x="16" y="419.2188">Restore Item Price</text><ellipse cx="79.332" cy="452.75" fill="url(#g1x93u5h6nq1mq0)" filter="url(#f1x93u5h6nq1mq)" rx="10" ry="10" style="stroke:#222222;stroke-width:1;"/><rect fill="url(#g1x93u5h6nq1mq1)" filter="url(#f1x93u5h6nq1mq)" height="40.4883" style="stroke:#495057;stroke-width:0.5;" width="109.0117" x="24.8262" y="482.75"/><text fill="#262626" font-family="sans-serif" font-size="14" font-weight="bold" lengthAdjust="spacing" textLength="85.0117" x="36.8262" y="508.2852">updatePrice</text><rect fill="url(#g1x93u5h6nq1mq1)" filter="url(#f1x93u5h6nq1mq)" height="40.4883" style="stroke:#495057;stroke-width:0.5;" width="88.6338" x="35.0151" y="543.2383"/><text fill="#262626" font-family="sans-serif" font-size="14" font-weight="bold" lengthAdjust="spacing" textLength="64.6338" x="47.0151" y="568.7734">sendMail</text><ellipse cx="79.332" cy="614.7266" fill="none" filter="url(#f1x93u5h6nq1mq)" rx="11" ry="11" style="stroke:#222222;stroke-width:1;"/><ellipse cx="79.332" cy="614.7266" fill="#222222" rx="6" ry="6" style="stroke:#222222;stroke-width:1;"/><rect fill="url(#g1x93u5h6nq1mq1)" filter="url(#f1x93u5h6nq1mq)" height="40.4883" style="stroke:#495057;stroke-width:0.5;" width="137.9141" x="273.3301" y="315.8633"/><text fill="#262626" font-family="sans-serif" font-size="14" font-weight="bold" lengthAdjust="spacing" textLength="113.9141" x="285.3301" y="341.3984">buy-new-items</text><ellipse cx="342.2871" cy="401.4844" fill="none" filter="url(#f1x93u5h6nq1mq)" rx="11" ry="11" style="stroke:#222222;stroke-width:1;"/><ellipse cx="342.2871" cy="401.4844" fill="#222222" rx="6" ry="6" style="stroke:#222222;stroke-width:1;"/><line style="stroke:#495057;stroke-width:1;" x1="211.1221" x2="211.1221" y1="30" y2="50"/><polygon fill="#495057" points="207.1221,40,211.1221,50,215.1221,40,211.1221,44" style="stroke:#495057;stroke-width:1;"/><line style="stroke:#495057;stroke-width:1;" x1="211.1221" x2="211.1221" y1="104.6211" y2="124.6211"/><polygon fill="#495057" points="207.1221,114.6211,211.1221,124.6211,215.1221,114.6211,211.1221,118.6211" style="stroke:#495057;stroke-width:1;"/><line style="stroke:#495057;stroke-width:1;" x1="211.1221" x2="211.1221" y1="165.1094" y2="185.1094"/><polygon fill="#495057" points="207.1221,175.1094,211.1221,185.1094,215.1221,175.1094,211.1221,179.1094" style="stroke:#495057;stroke-width:1;"/><line style="stroke:#495057;stroke-width:1;" x1="79.332" x2="79.332" y1="462.75" y2="482.75"/><polygon fill="#495057" points="75.332,472.75,79.332,482.75,83.332,472.75,79.332,476.75" style="stroke:#495057;stroke-width:1;"/><line style="stroke:#495057;stroke-width:1;" x1="79.332" x2="79.332" y1="523.2383" y2="543.2383"/><polygon fill="#495057" points="75.332,533.2383,79.332,543.2383,83.332,533.2383,79.332,537.2383" style="stroke:#495057;stroke-width:1;"/><line style="stroke:#495057;stroke-width:1;" x1="79.332" x2="79.332" y1="583.7266" y2="603.7266"/><polygon fill="#495057" points="75.332,593.7266,79.332,603.7266,83.332,593.7266,79.332,597.7266" style="stroke:#495057;stroke-width:1;"/><line style="stroke:#495057;stroke-width:1;" x1="79.332" x2="79.332" y1="370.4844" y2="442.75"/><polygon fill="#495057" points="75.332,432.75,79.332,442.75,83.332,432.75,79.332,436.75" style="stroke:#495057;stroke-width:1;"/><line style="stroke:#495057;stroke-width:1;" x1="342.2871" x2="342.2871" y1="356.3516" y2="390.4844"/><polygon fill="#495057" points="338.2871,380.4844,342.2871,390.4844,346.2871,380.4844,342.2871,384.4844" style="stroke:#495057;stroke-width:1;"/><line style="stroke:#495057;stroke-width:1;" x1="159.1387" x2="79.332" y1="271.7305" y2="271.7305"/><line style="stroke:#495057;stroke-width:1;" x1="79.332" x2="79.332" y1="271.7305" y2="329.9961"/><polygon fill="#495057" points="75.332,319.9961,79.332,329.9961,83.332,319.9961,79.332,323.9961" style="stroke:#495057;stroke-width:1;"/><text fill="#262626" font-family="sans-serif" font-size="12" lengthAdjust="spacing" textLength="162.4043" x="85.1289" y="305.3984">WarehouseStockCount &gt; 40</text><line style="stroke:#495057;stroke-width:1;" x1="263.1055" x2="342.2871" y1="271.7305" y2="271.7305"/><line style="stroke:#495057;stroke-width:1;" x1="342.2871" x2="342.2871" y1="271.7305" y2="315.8633"/><polygon fill="#495057" points="338.2871,305.8633,342.2871,315.8633,346.2871,305.8633,342.2871,309.8633" style="stroke:#495057;stroke-width:1;"/><line style="stroke:#495057;stroke-width:1;" x1="211.1221" x2="211.1221" y1="239.7305" y2="259.7305"/><polygon fill="#495057" points="207.1221,249.7305,211.1221,259.7305,215.1221,249.7305,211.1221,253.7305" style="stroke:#495057;stroke-width:1;"/><!--SRC=[LL31JiCm3BttAymEqpWKROWJORjmuZ1f6aYSG-ggLhEaIXnL2EtVSTQ0sboi-Btdz-mxSiQc1g71LYVBTUp9FGpfOgl8Ed05yBpVxxPIJOUcXr47x7oA2AqFu724oDxqQYAceT6CG8oNHVzbRQpy3YAdFFDJ2b0xSO0Y7E1fcxbn93OTR8hRXDyB8FvQJ3SYBG7UC_Rga-ERkh2MTgUFnwCg_K7M8IRlO7L66HmGtdBEKo23A_WfDCbG5lzx_tlTc6g9H7JDKPDLCxaVokSw2pwBzvM-QxbSdSyKLPK5lm00]--></g></svg>