<svg xmlns="http://www.w3.org/2000/svg" xmlns:xlink="http://www.w3.org/1999/xlink" contentStyleType="text/css" data-diagram-type="ACTIVITY" height="808px" preserveAspectRatio="none" style="width:447px;height:808px;" version="1.1" viewBox="0 0 447 808" width="447px" zoomAndPan="magnify"><defs><linearGradient id="gb8r59ohkhilj0" x1="50%" x2="50%" y1="0%" y2="100%"><stop offset="0%" stop-color="#525252"/><stop offset="100%" stop-color="#262626"/></linearGradient><linearGradient id="gb8r59ohkhilj1" x1="50%" x2="50%" y1="0%" y2="100%"><stop offset="0%" stop-color="#F4F4F4"/><stop offset="100%" stop-color="#F4F4F4"/></linearGradient></defs><g><ellipse cx="223.2627" cy="20" fill="url(#gb8r59ohkhilj0)" rx="10" ry="10" style="stroke:#222222;stroke-width:1;"/><rect fill="url(#gb8r59ohkhilj1)" height="88.2656" style="stroke:#C6C6C6;stroke-width:0.5;" width="222.373" x="112.0762" y="50"/><line style="stroke:#C6C6C6;stroke-width:1;" x1="112.0762" x2="201.5498" y1="87.0664" y2="87.0664"/><text fill="#262626" font-family="sans-serif" font-size="12" lengthAdjust="spacing" textLength="3.7969" x="211.5498" y="91.1016">&#160;</text><text fill="#262626" font-family="sans-serif" font-size="12" font-weight="bold" lengthAdjust="spacing" textLength="15.832" x="215.3467" y="91.1016">10</text><text fill="#262626" font-family="sans-serif" font-size="12" lengthAdjust="spacing" textLength="3.7969" x="231.1787" y="91.1016">&#160;</text><line style="stroke:#C6C6C6;stroke-width:1;" x1="244.9756" x2="334.4492" y1="87.0664" y2="87.0664"/><text fill="#262626" font-family="sans-serif" font-size="12" lengthAdjust="spacing" textLength="182.373" x="132.0762" y="115.7344">check warehouse for new stock</text><rect fill="url(#gb8r59ohkhilj1)" height="54.1328" style="stroke:#C6C6C6;stroke-width:0.5;" width="151.3691" x="147.5781" y="158.2656"/><text fill="#262626" font-family="sans-serif" font-size="12" font-weight="bold" lengthAdjust="spacing" textLength="111.3691" x="167.5781" y="189.8672">update item stock</text><rect fill="url(#gb8r59ohkhilj1)" height="88.2656" style="stroke:#C6C6C6;stroke-width:0.5;" width="157.1523" x="144.6865" y="232.3984"/><line style="stroke:#C6C6C6;stroke-width:1;" x1="144.6865" x2="189.4014" y1="269.4648" y2="269.4648"/><text fill="#262626" font-family="sans-serif" font-size="12" lengthAdjust="spacing" textLength="3.7969" x="199.4014" y="273.5">&#160;</text><path d="M208.1982,265.0313 C205.9982,265.0313 204.1982,266.8313 204.1982,269.0313 C204.1982,271.2313 205.9982,273.0313 208.1982,273.0313 C210.3982,273.0313 212.1982,271.2313 212.1982,269.0313 C212.1982,266.8313 210.3982,265.0313 208.1982,265.0313 M208.1982,266.0313 C209.8582,266.0313 211.1982,267.3713 211.1982,269.0313 C211.1982,270.6913 209.8582,272.0313 208.1982,272.0313 C206.5382,272.0313 205.1982,270.6913 205.1982,269.0313 C205.1982,267.3713 206.5382,266.0313 208.1982,266.0313 M207.6982,267.0313 L207.6982,269.2513 L207.8582,269.3813 L208.3582,269.8813 L208.6982,270.2613 L209.4182,269.5413 L209.0382,269.2013 L208.6982,268.8613 L208.6982,267.0513 L207.6982,267.0513" fill="#262626"/><text fill="#262626" font-family="sans-serif" font-size="12" font-weight="bold" lengthAdjust="spacing" textLength="26.1738" x="217.1533" y="273.5">wait</text><text fill="#262626" font-family="sans-serif" font-size="12" lengthAdjust="spacing" textLength="3.7969" x="243.3271" y="273.5">&#160;</text><line style="stroke:#C6C6C6;stroke-width:1;" x1="257.124" x2="301.8389" y1="269.4648" y2="269.4648"/><text fill="#262626" font-family="sans-serif" font-size="12" lengthAdjust="spacing" textLength="117.1523" x="164.6865" y="298.1328">Wait if stock is &gt; 40</text><polygon fill="url(#gb8r59ohkhilj1)" points="175.2793,340.6641,271.2461,340.6641,283.2461,357.7305,271.2461,374.7969,175.2793,374.7969,163.2793,357.7305,175.2793,340.6641" style="stroke:#F4F4F4;stroke-width:0.5;"/><text fill="#262626" font-family="sans-serif" font-size="12" lengthAdjust="spacing" textLength="68.373" x="189.0762" y="362.2656">check stock</text><rect fill="url(#gb8r59ohkhilj1)" height="54.1328" style="stroke:#C6C6C6;stroke-width:0.5;" width="88.4023" x="44.6855" y="433.0625"/><path d="M69.6855,456.1953 C67.4855,456.1953 65.6855,457.9953 65.6855,460.1953 C65.6855,462.3953 67.4855,464.1953 69.6855,464.1953 C71.8855,464.1953 73.6855,462.3953 73.6855,460.1953 C73.6855,457.9953 71.8855,456.1953 69.6855,456.1953 M69.6855,457.1953 C71.3455,457.1953 72.6855,458.5353 72.6855,460.1953 C72.6855,461.8553 71.3455,463.1953 69.6855,463.1953 C68.0255,463.1953 66.6855,461.8553 66.6855,460.1953 C66.6855,458.5353 68.0255,457.1953 69.6855,457.1953 M69.1855,458.1953 L69.1855,460.4153 L69.3455,460.5453 L69.8455,461.0453 L70.1855,461.4253 L70.9055,460.7053 L70.5255,460.3653 L70.1855,460.0253 L70.1855,458.2153 L69.1855,458.2153" fill="#262626"/><text fill="#262626" font-family="sans-serif" font-size="12" font-weight="bold" lengthAdjust="spacing" textLength="34.4473" x="78.6406" y="464.6641">PT2M</text><rect fill="#FFFFFF" height="276.3984" style="stroke:#F4F4F4;stroke-width:1.5;" width="156.7734" x="11" y="521.3281"/><path d="M158.7734,521.3281 L158.7734,548.4609 L148.7734,558.4609 L11,558.4609" fill="none" style="stroke:#F4F4F4;stroke-width:1.5;"/><text fill="#262626" font-family="sans-serif" font-size="12" font-weight="bold" lengthAdjust="spacing" textLength="117.7734" x="23" y="543.9297">restore-item-price</text><ellipse cx="88.8867" cy="585.4609" fill="url(#gb8r59ohkhilj0)" rx="10" ry="10" style="stroke:#222222;stroke-width:1;"/><rect fill="url(#gb8r59ohkhilj1)" height="54.1328" style="stroke:#C6C6C6;stroke-width:0.5;" width="112.8672" x="32.4531" y="615.4609"/><text fill="#262626" font-family="sans-serif" font-size="12" font-weight="bold" lengthAdjust="spacing" textLength="72.8672" x="52.4531" y="647.0625">updatePrice</text><rect fill="url(#gb8r59ohkhilj1)" height="54.1328" style="stroke:#C6C6C6;stroke-width:0.5;" width="95.4004" x="41.1865" y="689.5938"/><text fill="#262626" font-family="sans-serif" font-size="12" font-weight="bold" lengthAdjust="spacing" textLength="55.4004" x="61.1865" y="721.1953">sendMail</text><ellipse cx="88.8867" cy="774.7266" fill="none" rx="11" ry="11" style="stroke:#222222;stroke-width:1;"/><ellipse cx="88.8867" cy="774.7266" fill="#222222" rx="6" ry="6" style="stroke:#222222;stroke-width:1;"/><rect fill="url(#gb8r59ohkhilj1)" height="54.1328" style="stroke:#C6C6C6;stroke-width:0.5;" width="137.6406" x="298.8848" y="418.9297"/><text fill="#262626" font-family="sans-serif" font-size="12" font-weight="bold" lengthAdjust="spacing" textLength="97.6406" x="318.8848" y="450.5313">buy-new-items</text><ellipse cx="367.7051" cy="518.1953" fill="none" rx="11" ry="11" style="stroke:#222222;stroke-width:1;"/><ellipse cx="367.7051" cy="518.1953" fill="#222222" rx="6" ry="6" style="stroke:#222222;stroke-width:1;"/><line style="stroke:#C6C6C6;stroke-width:1;" x1="223.2627" x2="223.2627" y1="30" y2="50"/><polygon fill="#C6C6C6" points="219.2627,40,223.2627,50,227.2627,40,223.2627,44" style="stroke:#C6C6C6;stroke-width:1;"/><line style="stroke:#C6C6C6;stroke-width:1;" x1="223.2627" x2="223.2627" y1="138.2656" y2="158.2656"/><polygon fill="#C6C6C6" points="219.2627,148.2656,223.2627,158.2656,227.2627,148.2656,223.2627,152.2656" style="stroke:#C6C6C6;stroke-width:1;"/><line style="stroke:#C6C6C6;stroke-width:1;" x1="223.2627" x2="223.2627" y1="212.3984" y2="232.3984"/><polygon fill="#C6C6C6" points="219.2627,222.3984,223.2627,232.3984,227.2627,222.3984,223.2627,226.3984" style="stroke:#C6C6C6;stroke-width:1;"/><line style="stroke:#C6C6C6;stroke-width:1;" x1="88.8867" x2="88.8867" y1="595.4609" y2="615.4609"/><polygon fill="#C6C6C6" points="84.8867,605.4609,88.8867,615.4609,92.8867,605.4609,88.8867,609.4609" style="stroke:#C6C6C6;stroke-width:1;"/><line style="stroke:#C6C6C6;stroke-width:1;" x1="88.8867" x2="88.8867" y1="669.5938" y2="689.5938"/><polygon fill="#C6C6C6" points="84.8867,679.5938,88.8867,689.5938,92.8867,679.5938,88.8867,683.5938" style="stroke:#C6C6C6;stroke-width:1;"/><line style="stroke:#C6C6C6;stroke-width:1;" x1="88.8867" x2="88.8867" y1="743.7266" y2="763.7266"/><polygon fill="#C6C6C6" points="84.8867,753.7266,88.8867,763.7266,92.8867,753.7266,88.8867,757.7266" style="stroke:#C6C6C6;stroke-width:1;"/><line style="stroke:#C6C6C6;stroke-width:1;" x1="88.8867" x2="88.8867" y1="487.1953" y2="575.4609"/><polygon fill="#C6C6C6" points="84.8867,565.4609,88.8867,575.4609,92.8867,565.4609,88.8867,569.4609" style="stroke:#C6C6C6;stroke-width:1;"/><line style="stroke:#C6C6C6;stroke-width:1;" x1="367.7051" x2="367.7051" y1="473.0625" y2="507.1953"/><polygon fill="#C6C6C6" points="363.7051,497.1953,367.7051,507.1953,371.7051,497.1953,367.7051,501.1953" style="stroke:#C6C6C6;stroke-width:1;"/><line style="stroke:#C6C6C6;stroke-width:1;" x1="163.2793" x2="88.8867" y1="357.7305" y2="357.7305"/><line style="stroke:#C6C6C6;stroke-width:1;" x1="88.8867" x2="88.8867" y1="357.7305" y2="433.0625"/><polygon fill="#C6C6C6" points="84.8867,423.0625,88.8867,433.0625,92.8867,423.0625,88.8867,427.0625" style="stroke:#C6C6C6;stroke-width:1;"/><text fill="#262626" font-family="sans-serif" font-size="12" lengthAdjust="spacing" textLength="162.4043" x="102.6836" y="397.4297">WarehouseStockCount &gt; 40</text><line style="stroke:#C6C6C6;stroke-width:1;" x1="283.2461" x2="367.7051" y1="357.7305" y2="357.7305"/><line style="stroke:#C6C6C6;stroke-width:1;" x1="367.7051" x2="367.7051" y1="357.7305" y2="418.9297"/><polygon fill="#C6C6C6" points="363.7051,408.9297,367.7051,418.9297,371.7051,408.9297,367.7051,412.9297" style="stroke:#C6C6C6;stroke-width:1;"/><line style="stroke:#C6C6C6;stroke-width:1;" x1="223.2627" x2="223.2627" y1="320.6641" y2="340.6641"/><polygon fill="#C6C6C6" points="219.2627,330.6641,223.2627,340.6641,227.2627,330.6641,223.2627,334.6641" style="stroke:#C6C6C6;stroke-width:1;"/><!--SRC=[JP31gW8n34NtVaLq8LeegBoLYXlNWg3WkjRe1BKTsWo3YFzkEbFdJLPjR-xDQOPSu1F1cd3sJj-2UGqYcy03WANMeDHyfXHeBNTReBr3RG8Mlee8Ln_0OGsHlRslaa6fghmOHY36P_kkrAgBMe_jGvusaa7yIpt96UZQTWD5sC3VB7bYJMmBcEIvhJuLGKYCZ9-8DQCSahRrbUF6dRiQe6xc_hZOjJ2fIlaYCNa7eu0I7L0dPbq6iZY2TsuJYhoCNtL_tAVE_y2iHNINdQ57Nv3uCby-FVmUvBbwQTbaWn2JDLc-]--></g></svg>