<svg xmlns="http://www.w3.org/2000/svg" xmlns:xlink="http://www.w3.org/1999/xlink" contentStyleType="text/css" data-diagram-type="ACTIVITY" height="661px" preserveAspectRatio="none" style="width:469px;height:661px;background:#FFFFFF;" version="1.1" viewBox="0 0 469 661" width="469px" zoomAndPan="magnify"><defs><linearGradient id="g3a4qlkjis4b70" x1="50%" x2="50%" y1="0%" y2="100%"><stop offset="0%" stop-color="#525252"/><stop offset="100%" stop-color="#262626"/></linearGradient><filter height="300%" id="f3a4qlkjis4b7" width="300%" x="-1" y="-1"><feGaussianBlur result="blurOut" stdDeviation="2"/><feColorMatrix in="blurOut" result="blurOut2" type="matrix" values="0 0 0 0 0 0 0 0 0 0 0 0 0 0 0 0 0 0 .4 0"/><feOffset dx="4" dy="4" in="blurOut2" result="blurOut3"/><feBlend in="SourceGraphic" in2="blurOut3" mode="normal"/></filter><linearGradient id="g3a4qlkjis4b71" x1="50%" x2="50%" y1="0%" y2="100%"><stop offset="0%" stop-color="#F4F4F4"/><stop offset="100%" stop-color="#F4F4F4"/></linearGradient></defs><g><ellipse cx="231.8701" cy="20" fill="url(#g3a4qlkjis4b70)" filter="url(#f3a4qlkjis4b7)" rx="10" ry="10" style="stroke:#222222;stroke-width:1;"/><rect fill="url(#g3a4qlkjis4b71)" filter="url(#f3a4qlkjis4b7)" height="54.6211" style="stroke:#495057;stroke-width:0.5;" width="206.373" x="128.6836" y="50"/><text fill="#262626" font-family="sans-serif" font-size="14" font-weight="bold" lengthAdjust="spacing" textLength="48.6855" x="207.5273" y="75.5352">&#171;T&#187; 10</text><text fill="#262626" font-family="sans-serif" font-size="12" lengthAdjust="spacing" textLength="182.373" x="140.6836" y="90.0898">check warehouse for new stock</text><rect fill="url(#g3a4qlkjis4b71)" filter="url(#f3a4qlkjis4b7)" height="40.4883" style="stroke:#495057;stroke-width:0.5;" width="184.1455" x="139.7974" y="124.6211"/><text fill="#262626" font-family="sans-serif" font-size="14" font-weight="bold" lengthAdjust="spacing" textLength="160.1455" x="151.7974" y="150.1563">&#171;T&#187; update item stock</text><rect fill="url(#g3a4qlkjis4b71)" filter="url(#f3a4qlkjis4b7)" height="57.3328" style="stroke:#495057;stroke-width:0.5;" width="141.1523" x="161.2939" y="185.1094"/><path d="M207.0949,198.9094 A0.6,0.6 0 0 1 207.6949,198.3094 L220.8949,198.3094 A0.6,0.6 0 0 1 220.8949,199.5094 L219.6949,199.5094 L219.6949,200.7094 A5.4,5.4 0 0 1 216.6265,205.5814 C216.2785,205.7482 216.0949,206.0338 216.0949,206.2894 L216.0949,207.1294 C216.0949,207.385 216.2797,207.6706 216.6265,207.8374 A5.4,5.4 0 0 1 219.6949,212.7094 L219.6949,213.9094 L220.8949,213.9094 A0.6,0.6 0 0 1 220.8949,215.1094 L207.6949,215.1094 A0.6,0.6 0 1 1 207.6949,213.9094 L208.8949,213.9094 L208.8949,212.7094 A5.4,5.4 0 0 1 211.9633,207.8374 C212.3113,207.6706 212.4949,207.385 212.4949,207.1294 L212.4949,206.2894 C212.4949,206.0338 212.3101,205.7482 211.9633,205.5814 A5.4,5.4 0 0 1 208.8949,200.7094 L208.8949,199.5094 L207.6949,199.5094 A0.6,0.6 0 0 1 207.0949,198.9094 M210.0949,199.5094 L210.0949,200.7094 A4.2,4.2 0 0 0 212.4817,204.499 C213.1213,204.8062 213.6949,205.4482 213.6949,206.2882 L213.6949,207.1306 C213.6949,207.9706 213.1213,208.6126 212.4817,208.9198 A4.2,4.2 0 0 0 210.0949,212.7094 L210.0949,213.9094 L218.4949,213.9094 L218.4949,212.7094 A4.2,4.2 0 0 0 216.1081,208.9198 C215.4685,208.6126 214.8949,207.9718 214.8949,207.1306 L214.8949,206.2882 C214.8949,205.4482 215.4685,204.8062 216.1081,204.499 A4.2,4.2 0 0 0 218.4949,200.7094 L218.4949,199.5094" fill="#262626"/><text fill="#262626" font-family="sans-serif" font-size="14" font-weight="bold" lengthAdjust="spacing" textLength="30.5361" x="228.5092" y="213.3563">wait</text><text fill="#262626" font-family="sans-serif" font-size="12" lengthAdjust="spacing" textLength="117.1523" x="173.2939" y="227.9109">Wait if stock is &gt; 40</text><polygon fill="url(#g3a4qlkjis4b71)" filter="url(#f3a4qlkjis4b7)" points="191.8867,262.4422,271.8535,262.4422,283.8535,274.4422,271.8535,286.4422,191.8867,286.4422,179.8867,274.4422,191.8867,262.4422" style="stroke:#495057;stroke-width:0.5;"/><text fill="#262626" font-family="sans-serif" font-size="12" lengthAdjust="spacing" textLength="68.373" x="197.6836" y="278.9773">check stock</text><rect fill="url(#g3a4qlkjis4b71)" filter="url(#f3a4qlkjis4b7)" height="43.2" style="stroke:#495057;stroke-width:0.5;" width="88.0027" x="46.6119" y="332.7078"/><path d="M61.0119,346.5078 A0.6,0.6 0 0 1 61.6119,345.9078 L74.8119,345.9078 A0.6,0.6 0 0 1 74.8119,347.1078 L73.6119,347.1078 L73.6119,348.3078 A5.4,5.4 0 0 1 70.5435,353.1798 C70.1955,353.3466 70.0119,353.6322 70.0119,353.8878 L70.0119,354.7278 C70.0119,354.9834 70.1967,355.269 70.5435,355.4358 A5.4,5.4 0 0 1 73.6119,360.3078 L73.6119,361.5078 L74.8119,361.5078 A0.6,0.6 0 0 1 74.8119,362.7078 L61.6119,362.7078 A0.6,0.6 0 1 1 61.6119,361.5078 L62.8119,361.5078 L62.8119,360.3078 A5.4,5.4 0 0 1 65.8803,355.4358 C66.2283,355.269 66.4119,354.9834 66.4119,354.7278 L66.4119,353.8878 C66.4119,353.6322 66.2271,353.3466 65.8803,353.1798 A5.4,5.4 0 0 1 62.8119,348.3078 L62.8119,347.1078 L61.6119,347.1078 A0.6,0.6 0 0 1 61.0119,346.5078 M64.0119,347.1078 L64.0119,348.3078 A4.2,4.2 0 0 0 66.3987,352.0974 C67.0383,352.4046 67.6119,353.0466 67.6119,353.8866 L67.6119,354.729 C67.6119,355.569 67.0383,356.211 66.3987,356.5182 A4.2,4.2 0 0 0 64.0119,360.3078 L64.0119,361.5078 L72.4119,361.5078 L72.4119,360.3078 A4.2,4.2 0 0 0 70.0251,356.5182 C69.3855,356.211 68.8119,355.5702 68.8119,354.729 L68.8119,353.8866 C68.8119,353.0466 69.3855,352.4046 70.0251,352.0974 A4.2,4.2 0 0 0 72.4119,348.3078 L72.4119,347.1078" fill="#262626"/><text fill="#262626" font-family="sans-serif" font-size="14" font-weight="bold" lengthAdjust="spacing" textLength="40.1885" x="82.4262" y="360.9547">PT2M</text><rect fill="#FFFFFF" filter="url(#f3a4qlkjis4b7)" height="233.1094" style="stroke:#495057;stroke-width:1.5;" width="159.2266" x="11" y="410.9078"/><path d="M137.6641,410.9078 L137.6641,422.0406 L127.6641,432.0406 L11,432.0406" fill="none" style="stroke:#495057;stroke-width:1.5;"/><text fill="#262626" font-family="sans-serif" font-size="12" font-weight="bold" lengthAdjust="spacing" textLength="112.6641" x="16" y="425.5094">Restore Item Price</text><ellipse cx="90.6133" cy="459.0406" fill="url(#g3a4qlkjis4b70)" filter="url(#f3a4qlkjis4b7)" rx="10" ry="10" style="stroke:#222222;stroke-width:1;"/><rect fill="url(#g3a4qlkjis4b71)" filter="url(#f3a4qlkjis4b7)" height="40.4883" style="stroke:#495057;stroke-width:0.5;" width="139.2266" x="21" y="489.0406"/><text fill="#262626" font-family="sans-serif" font-size="14" font-weight="bold" lengthAdjust="spacing" textLength="115.2266" x="33" y="514.5758">&#171;T&#187; updatePrice</text><rect fill="url(#g3a4qlkjis4b71)" filter="url(#f3a4qlkjis4b7)" height="40.4883" style="stroke:#495057;stroke-width:0.5;" width="118.8486" x="31.189" y="549.5289"/><text fill="#262626" font-family="sans-serif" font-size="14" font-weight="bold" lengthAdjust="spacing" textLength="94.8486" x="43.189" y="575.0641">&#171;T&#187; sendMail</text><ellipse cx="90.6133" cy="621.0172" fill="none" filter="url(#f3a4qlkjis4b7)" rx="11" ry="11" style="stroke:#222222;stroke-width:1;"/><ellipse cx="90.6133" cy="621.0172" fill="#222222" rx="6" ry="6" style="stroke:#222222;stroke-width:1;"/><rect fill="url(#g3a4qlkjis4b71)" filter="url(#f3a4qlkjis4b7)" height="40.4883" style="stroke:#495057;stroke-width:0.5;" width="168.1289" x="284.6113" y="318.575"/><text fill="#262626" font-family="sans-serif" font-size="14" font-weight="bold" lengthAdjust="spacing" textLength="144.1289" x="296.6113" y="344.1102">&#171;T&#187; buy-new-items</text><ellipse cx="368.6758" cy="405.0633" fill="none" filter="url(#f3a4qlkjis4b7)" rx="11" ry="11" style="stroke:#222222;stroke-width:1;"/><ellipse cx="368.6758" cy="405.0633" fill="#222222" rx="6" ry="6" style="stroke:#222222;stroke-width:1;"/><line style="stroke:#495057;stroke-width:1;" x1="231.8701" x2="231.8701" y1="30" y2="50"/><polygon fill="#495057" points="227.8701,40,231.8701,50,235.8701,40,231.8701,44" style="stroke:#495057;stroke-width:1;"/><line style="stroke:#495057;stroke-width:1;" x1="231.8701" x2="231.8701" y1="104.6211" y2="124.6211"/><polygon fill="#495057" points="227.8701,114.6211,231.8701,124.6211,235.8701,114.6211,231.8701,118.6211" style="stroke:#495057;stroke-width:1;"/><line style="stroke:#495057;stroke-width:1;" x1="231.8701" x2="231.8701" y1="165.1094" y2="185.1094"/><polygon fill="#495057" points="227.8701,175.1094,231.8701,185.1094,235.8701,175.1094,231.8701,179.1094" style="stroke:#495057;stroke-width:1;"/><line style="stroke:#495057;stroke-width:1;" x1="90.6133" x2="90.6133" y1="469.0406" y2="489.0406"/><polygon fill="#495057" points="86.6133,479.0406,90.6133,489.0406,94.6133,479.0406,90.6133,483.0406" style="stroke:#495057;stroke-width:1;"/><line style="stroke:#495057;stroke-width:1;" x1="90.6133" x2="90.6133" y1="529.5289" y2="549.5289"/><polygon fill="#495057" points="86.6133,539.5289,90.6133,549.5289,94.6133,539.5289,90.6133,543.5289" style="stroke:#495057;stroke-width:1;"/><line style="stroke:#495057;stroke-width:1;" x1="90.6133" x2="90.6133" y1="590.0172" y2="610.0172"/><polygon fill="#495057" points="86.6133,600.0172,90.6133,610.0172,94.6133,600.0172,90.6133,604.0172" style="stroke:#495057;stroke-width:1;"/><line style="stroke:#495057;stroke-width:1;" x1="90.6133" x2="90.6133" y1="375.9078" y2="449.0406"/><polygon fill="#495057" points="86.6133,439.0406,90.6133,449.0406,94.6133,439.0406,90.6133,443.0406" style="stroke:#495057;stroke-width:1;"/><line style="stroke:#495057;stroke-width:1;" x1="368.6758" x2="368.6758" y1="359.0633" y2="394.0633"/><polygon fill="#495057" points="364.6758,384.0633,368.6758,394.0633,372.6758,384.0633,368.6758,388.0633" style="stroke:#495057;stroke-width:1;"/><line style="stroke:#495057;stroke-width:1;" x1="179.8867" x2="90.6133" y1="274.4422" y2="274.4422"/><line style="stroke:#495057;stroke-width:1;" x1="90.6133" x2="90.6133" y1="274.4422" y2="332.7078"/><polygon fill="#495057" points="86.6133,322.7078,90.6133,332.7078,94.6133,322.7078,90.6133,326.7078" style="stroke:#495057;stroke-width:1;"/><text fill="#262626" font-family="sans-serif" font-size="12" lengthAdjust="spacing" textLength="162.4043" x="96.4102" y="308.1102">WarehouseStockCount &gt; 40</text><line style="stroke:#495057;stroke-width:1;" x1="283.8535" x2="368.6758" y1="274.4422" y2="274.4422"/><line style="stroke:#495057;stroke-width:1;" x1="368.6758" x2="368.6758" y1="274.4422" y2="318.575"/><polygon fill="#495057" points="364.6758,308.575,368.6758,318.575,372.6758,308.575,368.6758,312.575" style="stroke:#495057;stroke-width:1;"/><line style="stroke:#495057;stroke-width:1;" x1="231.8701" x2="231.8701" y1="242.4422" y2="262.4422"/><polygon fill="#495057" points="227.8701,252.4422,231.8701,262.4422,235.8701,252.4422,231.8701,256.4422" style="stroke:#495057;stroke-width:1;"/><!--SRC=[XL3BQiCm4BpxAxQXXnJga8IUgjYNdde8X3RGioAluyMAPFJ0bD9_xyfHmIs5wYAMcTcPsHioIiS6eS5MHXrAtvDP3V6Y2n-a2mN0OrNjTiUwXisQ9zMXwc6K3ZiRFK9h7HWSmGUhUZ6dnw6H0O42NdwYjoSgMUpEMdf_xvNKM6rMsvgtKZ9yum-elOg0FDJmi4vYFr9G7InpY2j-nm37afnboTASwpLXJpQQCAapwn__mt6x5vauS7aAP0qiNf2T7C9pQd9mf7017vd6eVAPlj-l_XDV_8LxDCrUaXQpLNR8m-UirJpxf3p5zv9lNgRJUb4asHS0]--></g></svg>