<svg xmlns="http://www.w3.org/2000/svg" xmlns:xlink="http://www.w3.org/1999/xlink" contentStyleType="text/css" data-diagram-type="ACTIVITY" height="319px" preserveAspectRatio="none" style="width:181px;height:319px;background:#FFFFFF;" version="1.1" viewBox="0 0 181 319" width="181px" zoomAndPan="magnify"><defs><linearGradient id="g5ejuwxrjxumh0" x1="50%" x2="50%" y1="0%" y2="100%"><stop offset="0%" stop-color="#525252"/><stop offset="100%" stop-color="#262626"/></linearGradient><filter height="300%" id="f5ejuwxrjxumh" width="300%" x="-1" y="-1"><feGaussianBlur result="blurOut" stdDeviation="2"/><feColorMatrix in="blurOut" result="blurOut2" type="matrix" values="0 0 0 0 0 0 0 0 0 0 0 0 0 0 0 0 0 0 .4 0"/><feOffset dx="4" dy="4" in="blurOut2" result="blurOut3"/><feBlend in="SourceGraphic" in2="blurOut3" mode="normal"/></filter><linearGradient id="g5ejuwxrjxumh1" x1="50%" x2="50%" y1="0%" y2="100%"><stop offset="0%" stop-color="#F4F4F4"/><stop offset="100%" stop-color="#F4F4F4"/></linearGradient></defs><g><ellipse cx="87.6113" cy="20" fill="url(#g5ejuwxrjxumh0)" filter="url(#f5ejuwxrjxumh)" rx="10" ry="10" style="stroke:#222222;stroke-width:1;"/><rect fill="url(#g5ejuwxrjxumh1)" filter="url(#f5ejuwxrjxumh)" height="40.4883" style="stroke:#495057;stroke-width:0.5;" width="72.6855" x="51.2686" y="50"/><text fill="#262626" font-family="sans-serif" font-size="14" font-weight="bold" lengthAdjust="spacing" textLength="48.6855" x="63.2686" y="75.5352">&#171;T&#187; 10</text><ellipse cx="87.6113" cy="121.4883" fill="none" filter="url(#f5ejuwxrjxumh)" rx="11" ry="11" style="stroke:#222222;stroke-width:1;"/><ellipse cx="87.6113" cy="121.4883" fill="#222222" rx="6" ry="6" style="stroke:#222222;stroke-width:1;"/><rect fill="url(#g5ejuwxrjxumh1)" filter="url(#f5ejuwxrjxumh)" height="57.3328" style="stroke:#495057;stroke-width:0.5;" width="153.2227" x="11" y="142.4883"/><path d="M66.4688,159.2883 A2.4,2.4 0 0 1 68.8688,156.8883 L83.2688,156.8883 A2.4,2.4 0 0 1 85.6688,159.2883 L85.6688,168.8883 A2.4,2.4 0 0 1 83.2688,171.2883 L68.8688,171.2883 A2.4,2.4 0 0 1 66.4688,168.8883 M68.8688,158.0883 A1.2,1.2 0 0 0 67.6688,159.2883 L67.6688,159.5487 L76.0688,164.5887 L84.4688,159.5487 L84.4688,159.2883 A1.2,1.2 0 0 0 83.2688,158.0883 M84.4688,160.9479 L78.8192,164.3379 L84.4688,167.8143 M84.428,169.1991 L77.66,165.0339 L76.0688,165.9879 L74.4776,165.0339 L67.7096,169.1979 A1.2,1.2 0 0 0 68.8688,170.0883 L83.2688,170.0883 A1.2,1.2 0 0 0 84.428,169.1991 M67.6688,167.8143 L73.3184,164.3379 L67.6688,160.9479" fill="#262626"/><text fill="#262626" font-family="sans-serif" font-size="14" font-weight="bold" lengthAdjust="spacing" textLength="18.4707" x="90.2831" y="170.7352">20</text><text fill="#262626" font-family="sans-serif" font-size="12" lengthAdjust="spacing" textLength="129.2227" x="23" y="185.2898">Suspend at most PT0S</text><rect fill="url(#g5ejuwxrjxumh1)" filter="url(#f5ejuwxrjxumh)" height="40.4883" style="stroke:#495057;stroke-width:0.5;" width="72.6855" x="51.2686" y="219.8211"/><text fill="#262626" font-family="sans-serif" font-size="14" font-weight="bold" lengthAdjust="spacing" textLength="48.6855" x="63.2686" y="245.3563">&#171;T&#187; 30</text><ellipse cx="87.6113" cy="291.3094" fill="none" filter="url(#f5ejuwxrjxumh)" rx="11" ry="11" style="stroke:#222222;stroke-width:1;"/><ellipse cx="87.6113" cy="291.3094" fill="#222222" rx="6" ry="6" style="stroke:#222222;stroke-width:1;"/><line style="stroke:#495057;stroke-width:1;" x1="87.6113" x2="87.6113" y1="30" y2="50"/><polygon fill="#495057" points="83.6113,40,87.6113,50,91.6113,40,87.6113,44" style="stroke:#495057;stroke-width:1;"/><line style="stroke:#495057;stroke-width:1;" x1="87.6113" x2="87.6113" y1="90.4883" y2="110.4883"/><polygon fill="#495057" points="83.6113,100.4883,87.6113,110.4883,91.6113,100.4883,87.6113,104.4883" style="stroke:#495057;stroke-width:1;"/><line style="stroke:#495057;stroke-width:1;" x1="87.6113" x2="87.6113" y1="199.8211" y2="219.8211"/><polygon fill="#495057" points="83.6113,209.8211,87.6113,219.8211,91.6113,209.8211,87.6113,213.8211" style="stroke:#495057;stroke-width:1;"/><line style="stroke:#495057;stroke-width:1;" x1="87.6113" x2="87.6113" y1="260.3094" y2="280.3094"/><polygon fill="#495057" points="83.6113,270.3094,87.6113,280.3094,91.6113,270.3094,87.6113,274.3094" style="stroke:#495057;stroke-width:1;"/><!--SRC=[JSmn3eCm3030tQzmfOw00jqAoHigmGTIuafHJHBLJj_V8Z6mtd2Nc5QkWJ3GorVMLjunTQLk3AB-eu1ujtQQ5kUmD-CVSm7OwVgCBQKlSIxKoEgPRDyD3WS3SvL2AQ1NtB8eFXOpZ-VfTam_]--></g></svg>