<svg xmlns="http://www.w3.org/2000/svg" xmlns:xlink="http://www.w3.org/1999/xlink" contentStyleType="text/css" data-diagram-type="ACTIVITY" height="380px" preserveAspectRatio="none" style="width:480px;height:380px;background:#FFFFFF;" version="1.1" viewBox="0 0 480 380" width="480px" zoomAndPan="magnify"><defs><linearGradient id="g1qud8etx6q6s0" x1="50%" x2="50%" y1="0%" y2="100%"><stop offset="0%" stop-color="#525252"/><stop offset="100%" stop-color="#262626"/></linearGradient><filter height="300%" id="f1qud8etx6q6s" width="300%" x="-1" y="-1"><feGaussianBlur result="blurOut" stdDeviation="2"/><feColorMatrix in="blurOut" result="blurOut2" type="matrix" values="0 0 0 0 0 0 0 0 0 0 0 0 0 0 0 0 0 0 .4 0"/><feOffset dx="4" dy="4" in="blurOut2" result="blurOut3"/><feBlend in="SourceGraphic" in2="blurOut3" mode="normal"/></filter><linearGradient id="g1qud8etx6q6s1" x1="50%" x2="50%" y1="0%" y2="100%"><stop offset="0%" stop-color="#F4F4F4"/><stop offset="100%" stop-color="#F4F4F4"/></linearGradient></defs><g><ellipse cx="240.4277" cy="20" fill="url(#g1qud8etx6q6s0)" filter="url(#f1qud8etx6q6s)" rx="10" ry="10" style="stroke:#222222;stroke-width:1;"/><rect fill="url(#g1qud8etx6q6s1)" filter="url(#f1qud8etx6q6s)" height="54.6211" style="stroke:#495057;stroke-width:0.5;" width="126.9316" x="176.9619" y="50"/><text fill="#262626" font-family="sans-serif" font-size="14" font-weight="bold" lengthAdjust="spacing" textLength="48.6855" x="216.085" y="75.5352">&#171;T&#187; 10</text><text fill="#262626" font-family="sans-serif" font-size="12" lengthAdjust="spacing" textLength="102.9316" x="188.9619" y="90.0898">This step may fail</text><polygon fill="url(#g1qud8etx6q6s1)" filter="url(#f1qud8etx6q6s)" points="217.7061,124.6211,263.1494,124.6211,275.1494,136.6211,263.1494,148.6211,217.7061,148.6211,205.7061,136.6211,217.7061,124.6211" style="stroke:#495057;stroke-width:0.5;"/><text fill="#262626" font-family="sans-serif" font-size="12" lengthAdjust="spacing" textLength="33.8496" x="223.5029" y="141.1563">error?</text><text fill="#262626" font-family="sans-serif" font-size="12" lengthAdjust="spacing" textLength="19.0723" x="184.6338" y="132.0898">yes</text><text fill="#262626" font-family="sans-serif" font-size="12" lengthAdjust="spacing" textLength="14.8184" x="280.9463" y="132.0898">no</text><rect fill="url(#g1qud8etx6q6s1)" filter="url(#f1qud8etx6q6s)" height="54.6211" style="stroke:#495057;stroke-width:0.5;" width="222.4746" x="11" y="158.6211"/><text fill="#262626" font-family="sans-serif" font-size="14" font-weight="bold" lengthAdjust="spacing" textLength="48.6855" x="97.8945" y="184.1563">&#171;T&#187; 20</text><text fill="#262626" font-family="sans-serif" font-size="12" lengthAdjust="spacing" textLength="159.8613" x="23" y="198.7109">Will only run if the last step</text><text fill="#262626" font-family="sans-serif" font-size="12" font-weight="bold" lengthAdjust="spacing" textLength="34.8164" x="186.6582" y="198.7109">failed</text><rect fill="url(#g1qud8etx6q6s1)" filter="url(#f1qud8etx6q6s)" height="54.6211" style="stroke:#495057;stroke-width:0.5;" width="210.2871" x="253.4746" y="158.6211"/><text fill="#262626" font-family="sans-serif" font-size="14" font-weight="bold" lengthAdjust="spacing" textLength="48.6855" x="334.2754" y="184.1563">&#171;T&#187; 30</text><text fill="#262626" font-family="sans-serif" font-size="12" lengthAdjust="spacing" textLength="84.3047" x="265.4746" y="198.7109">Will only run if</text><text fill="#262626" font-family="sans-serif" font-size="12" font-weight="bold" lengthAdjust="spacing" textLength="15.5449" x="353.5762" y="198.7109">no</text><text fill="#262626" font-family="sans-serif" font-size="12" lengthAdjust="spacing" textLength="78.8438" x="372.918" y="198.7109">error occured</text><rect fill="url(#g1qud8etx6q6s1)" filter="url(#f1qud8etx6q6s)" height="54.6211" style="stroke:#495057;stroke-width:0.5;" width="119.0625" x="299.0869" y="233.2422"/><text fill="#262626" font-family="sans-serif" font-size="14" font-weight="bold" lengthAdjust="spacing" textLength="48.6855" x="334.2754" y="258.7773">&#171;T&#187; 40</text><text fill="#262626" font-family="sans-serif" font-size="12" lengthAdjust="spacing" textLength="95.0625" x="311.0869" y="273.332">Some other step</text><polygon fill="url(#g1qud8etx6q6s1)" filter="url(#f1qud8etx6q6s)" points="240.4277,297.8633,252.4277,309.8633,240.4277,321.8633,228.4277,309.8633,240.4277,297.8633" style="stroke:#495057;stroke-width:0.5;"/><ellipse cx="240.4277" cy="352.8633" fill="none" filter="url(#f1qud8etx6q6s)" rx="11" ry="11" style="stroke:#222222;stroke-width:1;"/><ellipse cx="240.4277" cy="352.8633" fill="#222222" rx="6" ry="6" style="stroke:#222222;stroke-width:1;"/><line style="stroke:#495057;stroke-width:1;" x1="240.4277" x2="240.4277" y1="30" y2="50"/><polygon fill="#495057" points="236.4277,40,240.4277,50,244.4277,40,240.4277,44" style="stroke:#495057;stroke-width:1;"/><line style="stroke:#495057;stroke-width:1;" x1="358.6182" x2="358.6182" y1="213.2422" y2="233.2422"/><polygon fill="#495057" points="354.6182,223.2422,358.6182,233.2422,362.6182,223.2422,358.6182,227.2422" style="stroke:#495057;stroke-width:1;"/><line style="stroke:#495057;stroke-width:1;" x1="205.7061" x2="122.2373" y1="136.6211" y2="136.6211"/><line style="stroke:#495057;stroke-width:1;" x1="122.2373" x2="122.2373" y1="136.6211" y2="158.6211"/><polygon fill="#495057" points="118.2373,148.6211,122.2373,158.6211,126.2373,148.6211,122.2373,152.6211" style="stroke:#495057;stroke-width:1;"/><line style="stroke:#495057;stroke-width:1;" x1="275.1494" x2="358.6182" y1="136.6211" y2="136.6211"/><line style="stroke:#495057;stroke-width:1;" x1="358.6182" x2="358.6182" y1="136.6211" y2="158.6211"/><polygon fill="#495057" points="354.6182,148.6211,358.6182,158.6211,362.6182,148.6211,358.6182,152.6211" style="stroke:#495057;stroke-width:1;"/><line style="stroke:#495057;stroke-width:1;" x1="122.2373" x2="122.2373" y1="213.2422" y2="309.8633"/><line style="stroke:#495057;stroke-width:1;" x1="122.2373" x2="228.4277" y1="309.8633" y2="309.8633"/><polygon fill="#495057" points="218.4277,305.8633,228.4277,309.8633,218.4277,313.8633,222.4277,309.8633" style="stroke:#495057;stroke-width:1;"/><line style="stroke:#495057;stroke-width:1;" x1="358.6182" x2="358.6182" y1="287.8633" y2="309.8633"/><line style="stroke:#495057;stroke-width:1;" x1="358.6182" x2="252.4277" y1="309.8633" y2="309.8633"/><polygon fill="#495057" points="262.4277,305.8633,252.4277,309.8633,262.4277,313.8633,258.4277,309.8633" style="stroke:#495057;stroke-width:1;"/><line style="stroke:#495057;stroke-width:1;" x1="240.4277" x2="240.4277" y1="104.6211" y2="124.6211"/><polygon fill="#495057" points="236.4277,114.6211,240.4277,124.6211,244.4277,114.6211,240.4277,118.6211" style="stroke:#495057;stroke-width:1;"/><line style="stroke:#495057;stroke-width:1;" x1="240.4277" x2="240.4277" y1="321.8633" y2="341.8633"/><polygon fill="#495057" points="236.4277,331.8633,240.4277,341.8633,244.4277,331.8633,240.4277,335.8633" style="stroke:#495057;stroke-width:1;"/><!--SRC=[TO-v3i8m44HxlcBe4akWS5Jau2E8H6t56yLYOqS-YlmzJj804kNixhoPtMlJSLG4HRsC70x-fSrnYYFlV90kx81RNLTLspGu5KcrW_RmWIQCSaOlDPTfgdja8EUikoD76CWWcyddQVK1E1UhVcfcMCCpN3IBDTs3fGyRLuY5Iag8XKpiAR6D_M5T_h24C5Q8hGjirqL7glosNZVhmuu4cxBTchk66QNxzBYTtW00]--></g></svg>