<svg xmlns="http://www.w3.org/2000/svg" xmlns:xlink="http://www.w3.org/1999/xlink" contentStyleType="text/css" data-diagram-type="ACTIVITY" height="287px" preserveAspectRatio="none" style="width:131px;height:287px;background:#FFFFFF;" version="1.1" viewBox="0 0 131 287" width="131px" zoomAndPan="magnify"><defs><linearGradient id="g2bi116oq2l590" x1="50%" x2="50%" y1="0%" y2="100%"><stop offset="0%" stop-color="#525252"/><stop offset="100%" stop-color="#262626"/></linearGradient><filter height="300%" id="f2bi116oq2l59" width="300%" x="-1" y="-1"><feGaussianBlur result="blurOut" stdDeviation="2"/><feColorMatrix in="blurOut" result="blurOut2" type="matrix" values="0 0 0 0 0 0 0 0 0 0 0 0 0 0 0 0 0 0 .4 0"/><feOffset dx="4" dy="4" in="blurOut2" result="blurOut3"/><feBlend in="SourceGraphic" in2="blurOut3" mode="normal"/></filter><linearGradient id="g2bi116oq2l591" x1="50%" x2="50%" y1="0%" y2="100%"><stop offset="0%" stop-color="#F4F4F4"/><stop offset="100%" stop-color="#F4F4F4"/></linearGradient></defs><g><ellipse cx="62.8818" cy="20" fill="url(#g2bi116oq2l590)" filter="url(#f2bi116oq2l59)" rx="10" ry="10" style="stroke:#222222;stroke-width:1;"/><rect fill="url(#g2bi116oq2l591)" filter="url(#f2bi116oq2l59)" height="40.4883" style="stroke:#495057;stroke-width:0.5;" width="72.6855" x="26.5391" y="50"/><text fill="#262626" font-family="sans-serif" font-size="14" font-weight="bold" lengthAdjust="spacing" textLength="48.6855" x="38.5391" y="75.5352">&#171;T&#187; 10</text><rect fill="url(#g2bi116oq2l591)" filter="url(#f2bi116oq2l59)" height="57.3328" style="stroke:#495057;stroke-width:0.5;" width="103.7637" x="11" y="110.4883"/><path d="M44.1394,124.2883 A0.6,0.6 0 0 1 44.7394,123.6883 L57.9394,123.6883 A0.6,0.6 0 0 1 57.9394,124.8883 L56.7394,124.8883 L56.7394,126.0883 A5.4,5.4 0 0 1 53.671,130.9603 C53.323,131.1271 53.1394,131.4127 53.1394,131.6683 L53.1394,132.5083 C53.1394,132.7639 53.3242,133.0495 53.671,133.2163 A5.4,5.4 0 0 1 56.7394,138.0883 L56.7394,139.2883 L57.9394,139.2883 A0.6,0.6 0 0 1 57.9394,140.4883 L44.7394,140.4883 A0.6,0.6 0 1 1 44.7394,139.2883 L45.9394,139.2883 L45.9394,138.0883 A5.4,5.4 0 0 1 49.0078,133.2163 C49.3558,133.0495 49.5394,132.7639 49.5394,132.5083 L49.5394,131.6683 C49.5394,131.4127 49.3546,131.1271 49.0078,130.9603 A5.4,5.4 0 0 1 45.9394,126.0883 L45.9394,124.8883 L44.7394,124.8883 A0.6,0.6 0 0 1 44.1394,124.2883 M47.1394,124.8883 L47.1394,126.0883 A4.2,4.2 0 0 0 49.5262,129.8779 C50.1658,130.1851 50.7394,130.8271 50.7394,131.6671 L50.7394,132.5095 C50.7394,133.3495 50.1658,133.9915 49.5262,134.2987 A4.2,4.2 0 0 0 47.1394,138.0883 L47.1394,139.2883 L55.5394,139.2883 L55.5394,138.0883 A4.2,4.2 0 0 0 53.1526,134.2987 C52.513,133.9915 51.9394,133.3507 51.9394,132.5095 L51.9394,131.6671 C51.9394,130.8271 52.513,130.1851 53.1526,129.8779 A4.2,4.2 0 0 0 55.5394,126.0883 L55.5394,124.8883" fill="#262626"/><text fill="#262626" font-family="sans-serif" font-size="14" font-weight="bold" lengthAdjust="spacing" textLength="18.4707" x="65.5536" y="138.7352">20</text><text fill="#262626" font-family="sans-serif" font-size="12" lengthAdjust="spacing" textLength="79.7637" x="23" y="153.2898">Wait for PT2H</text><rect fill="url(#g2bi116oq2l591)" filter="url(#f2bi116oq2l59)" height="40.4883" style="stroke:#495057;stroke-width:0.5;" width="72.6855" x="26.5391" y="187.8211"/><text fill="#262626" font-family="sans-serif" font-size="14" font-weight="bold" lengthAdjust="spacing" textLength="48.6855" x="38.5391" y="213.3563">&#171;T&#187; 30</text><ellipse cx="62.8818" cy="259.3094" fill="none" filter="url(#f2bi116oq2l59)" rx="11" ry="11" style="stroke:#222222;stroke-width:1;"/><ellipse cx="62.8818" cy="259.3094" fill="#222222" rx="6" ry="6" style="stroke:#222222;stroke-width:1;"/><line style="stroke:#495057;stroke-width:1;" x1="62.8818" x2="62.8818" y1="30" y2="50"/><polygon fill="#495057" points="58.8818,40,62.8818,50,66.8818,40,62.8818,44" style="stroke:#495057;stroke-width:1;"/><line style="stroke:#495057;stroke-width:1;" x1="62.8818" x2="62.8818" y1="90.4883" y2="110.4883"/><polygon fill="#495057" points="58.8818,100.4883,62.8818,110.4883,66.8818,100.4883,62.8818,104.4883" style="stroke:#495057;stroke-width:1;"/><line style="stroke:#495057;stroke-width:1;" x1="62.8818" x2="62.8818" y1="167.8211" y2="187.8211"/><polygon fill="#495057" points="58.8818,177.8211,62.8818,187.8211,66.8818,177.8211,62.8818,181.8211" style="stroke:#495057;stroke-width:1;"/><line style="stroke:#495057;stroke-width:1;" x1="62.8818" x2="62.8818" y1="228.3094" y2="248.3094"/><polygon fill="#495057" points="58.8818,238.3094,62.8818,248.3094,66.8818,238.3094,62.8818,242.3094" style="stroke:#495057;stroke-width:1;"/><!--SRC=[KypCIyufJKbLI4bDIopDAT4jpixCqoiepStXAYv9B2hXKb2mihMriGcnirCmDB26SbMICdKpyakBqdCIYujrYfCJSr9j3VMCx1IC380gmXCpInJIyeiK0aACFAoHJJ06cb1Saby00000]--></g></svg>