<svg xmlns="http://www.w3.org/2000/svg" xmlns:xlink="http://www.w3.org/1999/xlink" contentStyleType="text/css" data-diagram-type="ACTIVITY" height="549px" preserveAspectRatio="none" style="width:307px;height:549px;background:#FFFFFF;" version="1.1" viewBox="0 0 307 549" width="307px" zoomAndPan="magnify"><defs><linearGradient id="g1a0f1rky7cyn60" x1="50%" x2="50%" y1="0%" y2="100%"><stop offset="0%" stop-color="#525252"/><stop offset="100%" stop-color="#262626"/></linearGradient><filter height="300%" id="f1a0f1rky7cyn6" width="300%" x="-1" y="-1"><feGaussianBlur result="blurOut" stdDeviation="2"/><feColorMatrix in="blurOut" result="blurOut2" type="matrix" values="0 0 0 0 0 0 0 0 0 0 0 0 0 0 0 0 0 0 .4 0"/><feOffset dx="4" dy="4" in="blurOut2" result="blurOut3"/><feBlend in="SourceGraphic" in2="blurOut3" mode="normal"/></filter><linearGradient id="g1a0f1rky7cyn61" x1="50%" x2="50%" y1="0%" y2="100%"><stop offset="0%" stop-color="#F4F4F4"/><stop offset="100%" stop-color="#F4F4F4"/></linearGradient></defs><g><ellipse cx="159.8682" cy="20" fill="url(#g1a0f1rky7cyn60)" filter="url(#f1a0f1rky7cyn6)" rx="10" ry="10" style="stroke:#222222;stroke-width:1;"/><rect fill="url(#g1a0f1rky7cyn61)" filter="url(#f1a0f1rky7cyn6)" height="40.4883" style="stroke:#495057;stroke-width:0.5;" width="72.6855" x="123.5254" y="50"/><text fill="#262626" font-family="sans-serif" font-size="14" font-weight="bold" lengthAdjust="spacing" textLength="48.6855" x="135.5254" y="75.5352">&#171;T&#187; 10</text><rect fill="#262626" filter="url(#f1a0f1rky7cyn6)" height="6" rx="2.5" ry="2.5" style="stroke:#262626;stroke-width:1;" width="279.8965" x="11" y="110.4883"/><rect fill="url(#g1a0f1rky7cyn61)" filter="url(#f1a0f1rky7cyn6)" height="54.6211" style="stroke:#495057;stroke-width:0.5;" width="173.0508" x="23" y="136.4883"/><text fill="#262626" font-family="sans-serif" font-size="14" font-weight="bold" lengthAdjust="spacing" textLength="48.6855" x="85.1826" y="162.0234">&#171;T&#187; 20</text><text fill="#262626" font-family="sans-serif" font-size="12" lengthAdjust="spacing" textLength="22.4824" x="35" y="176.5781">Run</text><text fill="#262626" font-family="sans-serif" font-size="12" font-weight="bold" lengthAdjust="spacing" textLength="55.9102" x="61.2793" y="176.5781">any child</text><text fill="#262626" font-family="sans-serif" font-size="12" lengthAdjust="spacing" textLength="63.0645" x="120.9863" y="176.5781">after PT2M</text><rect fill="#FFFFFF" filter="url(#f1a0f1rky7cyn6)" height="263.1094" style="stroke:#495057;stroke-width:1.5;" width="92.6855" x="63.1826" y="201.1094"/><path d="M133.0928,201.1094 L133.0928,212.2422 L123.0928,222.2422 L63.1826,222.2422" fill="none" style="stroke:#495057;stroke-width:1.5;"/><text fill="#262626" font-family="sans-serif" font-size="12" font-weight="bold" lengthAdjust="spacing" textLength="55.9102" x="68.1826" y="215.7109">any child</text><ellipse cx="109.5254" cy="249.2422" fill="url(#g1a0f1rky7cyn60)" filter="url(#f1a0f1rky7cyn6)" rx="10" ry="10" style="stroke:#222222;stroke-width:1;"/><rect fill="url(#g1a0f1rky7cyn61)" filter="url(#f1a0f1rky7cyn6)" height="40.4883" style="stroke:#495057;stroke-width:0.5;" width="72.6855" x="73.1826" y="294.2422"/><text fill="#262626" font-family="sans-serif" font-size="14" font-weight="bold" lengthAdjust="spacing" textLength="48.6855" x="85.1826" y="319.7773">&#171;T&#187; 10</text><rect fill="url(#g1a0f1rky7cyn61)" filter="url(#f1a0f1rky7cyn6)" height="40.4883" style="stroke:#495057;stroke-width:0.5;" width="72.6855" x="73.1826" y="369.7305"/><text fill="#262626" font-family="sans-serif" font-size="14" font-weight="bold" lengthAdjust="spacing" textLength="48.6855" x="85.1826" y="395.2656">&#171;T&#187; 20</text><ellipse cx="109.5254" cy="441.2188" fill="none" filter="url(#f1a0f1rky7cyn6)" rx="11" ry="11" style="stroke:#222222;stroke-width:1;"/><ellipse cx="109.5254" cy="441.2188" fill="#222222" rx="6" ry="6" style="stroke:#222222;stroke-width:1;"/><rect fill="url(#g1a0f1rky7cyn61)" filter="url(#f1a0f1rky7cyn6)" height="40.4883" style="stroke:#495057;stroke-width:0.5;" width="72.6855" x="206.2109" y="241.3652"/><text fill="#262626" font-family="sans-serif" font-size="14" font-weight="bold" lengthAdjust="spacing" textLength="48.6855" x="218.2109" y="266.9004">&#171;T&#187; 30</text><rect fill="url(#g1a0f1rky7cyn61)" filter="url(#f1a0f1rky7cyn6)" height="40.4883" style="stroke:#495057;stroke-width:0.5;" width="72.6855" x="206.2109" y="316.8535"/><text fill="#262626" font-family="sans-serif" font-size="14" font-weight="bold" lengthAdjust="spacing" textLength="48.6855" x="218.2109" y="342.3887">&#171;T&#187; 40</text><rect fill="#262626" filter="url(#f1a0f1rky7cyn6)" height="6" rx="2.5" ry="2.5" style="stroke:#262626;stroke-width:1;" width="279.8965" x="11" y="484.2188"/><ellipse cx="159.8682" cy="521.2188" fill="none" filter="url(#f1a0f1rky7cyn6)" rx="11" ry="11" style="stroke:#222222;stroke-width:1;"/><ellipse cx="159.8682" cy="521.2188" fill="#222222" rx="6" ry="6" style="stroke:#222222;stroke-width:1;"/><line style="stroke:#495057;stroke-width:1;" x1="159.8682" x2="159.8682" y1="30" y2="50"/><polygon fill="#495057" points="155.8682,40,159.8682,50,163.8682,40,159.8682,44" style="stroke:#495057;stroke-width:1;"/><line style="stroke:#495057;stroke-width:1;" x1="109.5254" x2="109.5254" y1="259.2422" y2="294.2422"/><polygon fill="#495057" points="105.5254,284.2422,109.5254,294.2422,113.5254,284.2422,109.5254,288.2422" style="stroke:#495057;stroke-width:1;"/><line style="stroke:#495057;stroke-width:1;" x1="109.5254" x2="109.5254" y1="334.7305" y2="369.7305"/><polygon fill="#495057" points="105.5254,359.7305,109.5254,369.7305,113.5254,359.7305,109.5254,363.7305" style="stroke:#495057;stroke-width:1;"/><line style="stroke:#495057;stroke-width:1;" x1="109.5254" x2="109.5254" y1="410.2188" y2="430.2188"/><polygon fill="#495057" points="105.5254,420.2188,109.5254,430.2188,113.5254,420.2188,109.5254,424.2188" style="stroke:#495057;stroke-width:1;"/><line style="stroke:#495057;stroke-width:1;" x1="109.5254" x2="109.5254" y1="191.1094" y2="239.2422"/><polygon fill="#495057" points="105.5254,229.2422,109.5254,239.2422,113.5254,229.2422,109.5254,233.2422" style="stroke:#495057;stroke-width:1;"/><line style="stroke:#495057;stroke-width:1;" x1="242.5537" x2="242.5537" y1="281.8535" y2="316.8535"/><polygon fill="#495057" points="238.5537,306.8535,242.5537,316.8535,246.5537,306.8535,242.5537,310.8535" style="stroke:#495057;stroke-width:1;"/><line style="stroke:#495057;stroke-width:1;" x1="109.5254" x2="109.5254" y1="116.4883" y2="136.4883"/><polygon fill="#495057" points="105.5254,126.4883,109.5254,136.4883,113.5254,126.4883,109.5254,130.4883" style="stroke:#495057;stroke-width:1;"/><line style="stroke:#495057;stroke-width:1;" x1="242.5537" x2="242.5537" y1="116.4883" y2="241.3652"/><polygon fill="#495057" points="238.5537,231.3652,242.5537,241.3652,246.5537,231.3652,242.5537,235.3652" style="stroke:#495057;stroke-width:1;"/><line style="stroke:#495057;stroke-width:1;" x1="242.5537" x2="242.5537" y1="357.3418" y2="484.2188"/><polygon fill="#495057" points="238.5537,474.2188,242.5537,484.2188,246.5537,474.2188,242.5537,478.2188" style="stroke:#495057;stroke-width:1;"/><line style="stroke:#495057;stroke-width:1;" x1="159.8682" x2="159.8682" y1="90.4883" y2="110.4883"/><polygon fill="#495057" points="155.8682,100.4883,159.8682,110.4883,163.8682,100.4883,159.8682,104.4883" style="stroke:#495057;stroke-width:1;"/><line style="stroke:#495057;stroke-width:1;" x1="159.8682" x2="159.8682" y1="490.2188" y2="510.2188"/><polygon fill="#495057" points="155.8682,500.2188,159.8682,510.2188,163.8682,500.2188,159.8682,504.2188" style="stroke:#495057;stroke-width:1;"/><!--SRC=[NK_B3e8m4Bpp5IF79Xf4J_Bu0nDZ-8665cse2w7jmHZ_tLgq8UnbTsPdTtOtYbhjX8IG7NVQRaslQ3UwXqwCvPDDW5DLbMLJrzXdXOVTCFK-BVWy2_Zg28nnUgAzAoqO0- -id71fydCH5ADVgAmQ26cKfNY57l3tcsFbkYBpI1exZA5y_su3lt55oxiFGHpXqKD9OdxaE_u1]--></g></svg>